<svg enable-background="new 0 0 117.7 129" viewBox="0 0 117.7 129" xmlns="http://www.w3.org/2000/svg"><g fill="#7e7c7c"><path d="m15.8 79.2c-3.7 0-6.8 3-6.8 6.8 0 3.7 3 6.8 6.8 6.8s6.8-3 6.8-6.8-3-6.8-6.8-6.8zm0 9.1c-1.2 0-2.3-1-2.3-2.3 0-1.2 1-2.3 2.3-2.3s2.3 1 2.3 2.3c0 1.2-1 2.3-2.3 2.3z"/><path d="m101.8 79.2c-3.7 0-6.8 3-6.8 6.8 0 3.7 3 6.8 6.8 6.8 3.7 0 6.8-3 6.8-6.8s-3-6.8-6.8-6.8zm0 9.1c-1.2 0-2.3-1-2.3-2.3 0-1.2 1-2.3 2.3-2.3s2.3 1 2.3 2.3c0 1.2-1 2.3-2.3 2.3z"/><path d="m117.7 86c0-8.7-7.1-15.8-15.8-15.8-.1 0-.2 0-.3 0-8.6.1-15.6 7.3-15.6 16v7.6c-6.2-1.7-15.2-3.3-27.2-3.3s-21 1.6-27.2 3.3v-7.8c0-8.7-7.1-15.8-15.8-15.8-.2 0-.4 0-.6 0-8.2.3-14.8 6.9-15.2 15.2-.3 8.1 5.5 15.1 13.6 16.3v9.2c0 5 4.1 9 9.1 9.1v6.8c0 1.2 1 2.3 2.3 2.3h6.8c.9 0 1.6-.5 2-1.3l3.9-7.8h42.5l3.9 7.8c.4.8 1.2 1.3 2 1.3h6.8c1.2 0 2.3-1 2.3-2.3v-6.8c5 0 9-4.1 9.1-9.1v-9.2c7.6-1.2 13.4-7.8 13.4-15.7zm-87.4 38.5h-3.1v-4.5h5.4zm60.2 0h-3.1l-2.3-4.5h5.4zm11.3-27.2c-1.2 0-2.3 1-2.3 2.3v11.3c0 2.5-2 4.5-4.5 4.5h-72.4c-2.5 0-4.5-2-4.5-4.5v-11.3c0-1.2-1-2.3-2.3-2.3-6.2 0-11.3-5.1-11.3-11.3 0-.1 0-.3 0-.4.2-5.9 5-10.6 10.9-10.9 6.2-.2 11.5 4.6 11.8 10.9v.4 9.2c-3.6 1.2-5.4 2.3-5.6 2.4l2.2 3.9c.1-.1 12-6.5 35.1-6.5s35 6.4 35.1 6.5l2.2-3.9c-.2-.1-2.1-1.1-5.6-2.4v-9c0-6.3 5-11.4 11.1-11.5 6.2-.1 11.4 4.9 11.5 11.1s-4.9 11.4-11.1 11.5c-.1 0-.2 0-.3 0z"/><path d="m18.1 54.3c0-2.5 2-4.5 4.5-4.5h72.4c2.5 0 4.5 2 4.5 4.5v11.3h4.5v-11.3c0-5-4.1-9-9.1-9.1h-72.3c-5 0-9 4.1-9.1 9.1v11.3h4.5v-11.3z"/><path d="m45.3 58.8h4.5v4.5h-4.5z"/><path d="m56.6 70.2h4.5v4.5h-4.5z"/><path d="m33.9 70.2h4.5v4.5h-4.5z"/><path d="m45.3 81.5h4.5v4.5h-4.5z"/><path d="m67.9 58.8h4.5v4.5h-4.5z"/><path d="m79.2 70.2h4.5v4.5h-4.5z"/><path d="m67.9 81.5h4.5v4.5h-4.5z"/><path d="m15.8 36.2h20.4v4.5h4.5v-4.5h20.4c1.2 0 2.3-1 2.3-2.3 0-.1 0-.1 0-.2l-2.3-27.1c-.1-1.2-1.1-2.1-2.3-2.1h-18.1v-4.5h-4.5v4.5h-18.1c-1.2 0-2.2.9-2.3 2.1l-2.3 27.2c-.1 1.2.8 2.3 2.1 2.4zm4.4-27.1h36.6l1.9 22.6h-40.4z"/></g></svg>