<svg enable-background="new 0 0 141.3 124.9" viewBox="0 0 141.3 124.9" xmlns="http://www.w3.org/2000/svg"><g fill="#7e7c7c"><path d="m78.8 29.1c3.6 0 6.9-1.3 9.4-3.5 2.6 2.2 5.9 3.4 9.3 3.4 3.5 0 6.8-1.3 9.3-3.4 2.6 2.2 6 3.5 9.4 3.5 8 0 14.5-6.5 14.5-14.5s-6.5-14.5-14.5-14.5c-3.4 0-6.7 1.2-9.3 3.4-2.5-2.2-5.8-3.5-9.4-3.5-3.5 0-6.8 1.3-9.4 3.5-2.5-2.1-5.7-3.4-9.3-3.4-8 0-14.5 6.5-14.5 14.5s6.5 14.5 14.5 14.5zm47.8-14.5c0 5.7-4.6 10.3-10.3 10.3-2.5 0-4.8-.9-6.7-2.4 1.5-2.3 2.4-5.1 2.4-8s-.9-5.6-2.3-7.9c1.8-1.5 4.2-2.4 6.6-2.4 5.7.1 10.3 4.7 10.3 10.4zm-18.7-.1c0 5.7-4.6 10.3-10.3 10.3-2.4 0-4.7-.8-6.6-2.4 1.5-2.3 2.3-5 2.3-7.9 0-3-.9-5.7-2.4-8 1.9-1.6 4.2-2.4 6.7-2.4 5.6 0 10.3 4.7 10.3 10.4zm-29.1-10.2c5.7 0 10.3 4.6 10.3 10.3s-4.6 10.4-10.3 10.4-10.3-4.6-10.3-10.3 4.6-10.4 10.3-10.4z"/><path d="m130.9 33.2h-66.6c-5.7 0-10.3 4.6-10.3 10.3v33.7c0 3.4 2.8 6.2 6.2 6.2.7 0 1.4-.1 2.1-.4v34.5c0 4 3.3 7.3 7.3 7.3s7.3-3.3 7.3-7.3v-38.2h4.1v38.2c0 4 3.3 7.3 7.3 7.3s7.3-3.3 7.3-7.3v-34.4c.6.2 1.3.3 2.1.3.7 0 1.4-.1 2.1-.3v34.3c0 4 3.3 7.3 7.3 7.3s7.3-3.3 7.3-7.3v-34.3c.6.2 1.3.3 2.1.3.7 0 1.4-.1 2.1-.3v34.4c0 4 3.3 7.3 7.3 7.3s7.3-3.3 7.3-7.3v-34.4c.6.2 1.3.3 2.1.3 3.5 0 6.2-2.7 6.2-6.1v-33.7c-.2-5.7-4.9-10.4-10.6-10.4zm-33.3 46.1c-1.2 0-2.1-.8-2.1-1.9v-33.8c0-1.1-.9-2.1-2.1-2.1s-2.1.9-2.1 2.1v74c0 1.7-1.4 3.2-3.2 3.2s-3.2-1.4-3.2-3.2v-40.3c0-1.1-.9-2.1-2.1-2.1h-8.3c-1.1 0-2.1.9-2.1 2.1v40.3c0 1.7-1.4 3.2-3.2 3.2-1.7 0-3.2-1.4-3.2-3.2v-74c0-1.1-.9-2.1-2.1-2.1-1.1 0-2.1.9-2.1 2.1v33.7c0 1.1-.9 2.1-2.1 2.1-1.1 0-2.1-.9-2.1-2.1v-33.7c0-3.4 2.8-6.2 6.2-6.2h29.2c3.4 0 6.2 2.8 6.2 6.2v33.8c.5 1.1-.4 1.9-1.6 1.9zm18.7 0c-1.2 0-2.1-.8-2.1-1.9v-33.9c0-1.1-.9-2.1-2.1-2.1s-2.1.9-2.1 2.1v74c0 1.7-1.4 3.2-3.2 3.2-1.7 0-3.1-1.4-3.1-3.2v-73.9c0-2.3-.8-4.5-2.1-6.2h10.4c3.4 0 6.2 2.8 6.2 6.2v33.8c.2 1.1-.7 1.9-1.9 1.9zm20.8-1.9c0 1.1-.9 1.9-2.1 1.9s-2.1-.8-2.1-1.9v-33.8c0-1.1-.9-2.1-2.1-2.1-1.1 0-2.1.9-2.1 2.1v74c0 1.7-1.4 3.2-3.2 3.2-1.7 0-3.2-1.4-3.2-3.2v-74c0-2.3-.8-4.5-2.1-6.2h10.4c3.4 0 6.2 2.8 6.2 6.2v33.8z"/><path d="m39.5 33.2h-29.2c-5.7 0-10.3 4.7-10.3 10.4v33.7c0 3.4 2.8 6.2 6.2 6.2.7 0 1.4-.1 2.1-.4v34.5c0 4 3.3 7.3 7.3 7.3s7.3-3.3 7.3-7.3v-38.3h4.1v38.2c0 4 3.3 7.3 7.3 7.3s7.3-3.3 7.3-7.3v-34.4c.6.2 1.3.3 2.1.3 3.5 0 6.2-2.7 6.2-6.1v-33.7c-.1-5.7-4.7-10.4-10.4-10.4zm6.2 44.2c0 1.1-.9 1.9-2.1 1.9s-2.1-.8-2.1-1.9v-33.8c0-1.1-.9-2.1-2.1-2.1s-2.1.9-2.1 2.1v74c0 1.7-1.4 3.2-3.2 3.2-1.7 0-3.2-1.4-3.2-3.2v-40.3c0-1.1-.9-2.1-2.1-2.1h-8.3c-1.1 0-2.1.9-2.1 2.1v40.3c0 1.7-1.4 3.2-3.2 3.2s-3.1-1.4-3.1-3.2v-61.6c0-1.1-.9-2.1-2.1-2.1s-1.7 1-1.7 2.1v21.2c0 1.1-.9 2.1-2.1 2.1-1.1 0-2.1-.9-2.1-2.1v-33.6c0-3.4 2.8-6.2 6.2-6.2h29.2c3.4 0 6.2 2.8 6.2 6.2z"/><circle cx="10.3" cy="46.7" r="2.1"/><path d="m26.4 28.8c-7.9 0-14.4-6.5-14.4-14.4s6.5-14.4 14.4-14.4 14.4 6.5 14.4 14.4-6.4 14.4-14.4 14.4zm0-24.8c-5.7 0-10.4 4.7-10.4 10.4s4.7 10.4 10.4 10.4 10.4-4.7 10.4-10.4-4.6-10.4-10.4-10.4z"/></g></svg>