<svg enable-background="new 0 0 144.4 111.4" viewBox="0 0 144.4 111.4" xmlns="http://www.w3.org/2000/svg"><g fill="#e60028"><path d="m109.8 54.7h23.5c2.2 0 3.7-.4 4-3 .1-.8 1.2-2.2 2.3-2.1 1 .1 1.5 1.5 1.7 2.4.5 2.9-1.2 5.7-4.1 6.5-2.2.6-2.7 1.8-2.9 3.8-1 10-2 20.1-3.2 30.1-1.3 11.1-10.2 19-21.2 19s-20.1-8.1-21.4-19.3c-1.2-9.9-2.2-19.9-3.2-29.8-.2-2-.5-3.3-2.8-3.9-3-.8-4.2-3.3-4.2-6.2.1-8-.9-16.1 2-24 .3-.9-.7-2.5-1.4-3.4-4.9-5.9-4.9-14.1.2-19.8 5-5.6 13.4-6.5 19.6-2.1.6.4 1.4.8 1.7 1.4 3.6 7.2 10.4 2.2 15.4 4 .3.1 1.2-1 1.7-1.7 5.5-7.4 14.9-8.7 21.8-3 6.7 5.5 7.1 15 1.1 21.8-.7.8-.9 2.4-.7 3.5.5 3.5 1.3 6.9 1.8 10.4.2 1.6.7 4.2-2.1 4.1-2.6 0-2-2.3-2-4-.4-16.8-14.4-29-30.9-27-12.9 1.5-23.3 12.7-23.7 25.7-.1 4.3 0 8.6-.1 12.9-.1 2.6 1.1 3.4 3.5 3.4 7.7.2 15.6.3 23.6.3zm-12.2 4.5c1.2 10.7 2.3 20.9 3.5 31.1.6 5.3 4 8.5 8.8 8.4 4.6 0 8.1-3.5 8.6-8.7.7-6.6 1.3-13.2 2-19.8.3-3.6.6-7.2 1-11-8.1 0-15.8 0-23.9 0zm-8.3.1v1.7c1.1 9.9 2.2 19.9 3.2 29.8 1.1 9.7 8 16.4 17.1 16.5 9.2.1 16.4-6.8 17.4-16.5.6-6.1 1.3-12.2 1.9-18.3.5-4.3.9-8.7 1.4-13.2-1.7 0-3 0-4.4 0-1.1 10.6-2.1 21-3.2 31.3-.8 7.5-6.2 12.5-13.2 12.4-6.8-.1-11.9-5.1-12.7-12.5-1.1-9.5-2.3-19-3.1-28.5-.4-3.2-1.9-3.3-4.4-2.7zm9.4-49.4c-2.5-4.1-6.2-5.9-10.3-5.2-4.4.7-7.4 3.3-8.7 7.5-1.2 3.9 0 7.8 3.2 10.3 2.1-2.2 2.1-2.2 1.1-5.1-1-2.8-.2-5.8 2.2-7.5 2.5-1.7 5.2-1.9 7.4.1 1.9 1.9 3.3 1.1 5.1-.1zm38 12.7c3.4-3.2 4.3-7.2 2.8-11.3-1.6-4.1-5.3-6.8-9.6-6.9-3.9-.1-7.3 2-8.9 5.4 1.8 1.6 3.3 1.6 5.3 0 2.3-1.9 5.1-1.6 7.4.3 2.3 1.8 3.3 5 1.7 7.5-1.5 2.4-.4 3.5 1.3 5z"/><path d="m34.9 54.7h23.5c2.1 0 3.5-.3 3.7-2.9.1-.8 1.1-2.3 2.2-2.2 1.2.1 1.9 1.9 1.9 2.9.1 2.9-1.3 5.3-4.3 6.1-2 .5-2.5 1.5-2.6 3.3-1 9.9-2.1 19.9-3.2 29.8-1.2 11.4-9.9 19.6-20.9 19.8-11.3.2-20.3-7.6-21.8-19.1-1.2-10-2.2-20.1-3.2-30.1-.2-1.9-.4-3.3-2.7-3.8-2.8-.6-4.4-2.8-4.4-5.7.2-8.2-1.2-16.6 2-24.6.3-.7-.3-2-.9-2.6-6-6.7-5.6-16.2 1-21.8 6.9-5.8 16.2-4.4 22 3.1.7.9 2.2 1 3.4 1.5.2.1.4-.1.6-.1 5.8.6 10.5-.4 15.1-5.1 5.1-5.3 14.1-3.6 19.1 1.9 5.2 5.7 5.4 13.8.3 19.6-1.6 1.8-1.7 3.2-1.1 5.4.9 3.4 1.3 6.9 1.5 10.5.1 1-.8 3.3-2.1 3.3s-2-2.2-2-3.4c0-9.8-3.9-17.6-11.9-23.1-8.7-6-18.1-6.6-27.5-2-9.8 4.8-14.8 13.1-15.3 24-.1 3.8.1 7.6 0 11.5-.1 2.7 1 3.8 3.8 3.8 7.9-.1 15.8 0 23.8 0zm-12.3 4.5c1.2 10.9 2.2 21.5 3.4 32 .5 4.5 4.4 7.5 8.7 7.5 4.4 0 7.9-3.1 8.4-7.7.7-5.5 1.2-11.1 1.8-16.6.5-5 1-9.9 1.5-15.1-8.1-.1-15.7-.1-23.8-.1zm-8.4.2c1.2 11.2 2.1 22.3 3.7 33.4 1.3 8.7 8.8 14.6 17.2 14.4 8.8-.2 15.7-6.6 16.8-15.7.6-5 1.1-10 1.6-15.1.6-5.7 1.3-11.4 1.9-17.3-1.7 0-2.9 0-4.3 0-.2 1.6-.4 3.1-.6 4.6-.9 9-1.8 17.9-2.8 26.9-.8 7.2-5.9 12.1-12.6 12.3-6.9.2-12.4-4.6-13.2-11.9-1.2-9.6-2.2-19.2-3.1-28.8-.4-2.8-1.4-3.8-4.6-2.8zm31.5-49.5c1.8 1.3 3.2 2.1 5.2.2 2.2-2 5.5-1.8 7.7.1 2.4 2.1 3.3 4.8 1.7 7.5-1.4 2.4-.2 3.5 1.4 5.1 3.1-2.9 4-6.3 3.1-10.2-.9-4.2-4.4-7.3-8.7-8-4.2-.6-7.9 1.2-10.4 5.3zm-22.2.9c-2.3-5-6-6.8-10.1-6.1-4.3.7-7.8 3.8-8.8 7.9-1 4 .3 7.7 3.5 10 .7-.9 1.4-1.8 2.1-2.8-.3-.5-.5-.9-.7-1.2-1.7-3.3-1.2-6.3 1.3-8.4 2.3-2 5.3-1.7 8.3.1 1.2.7 2.9.3 4.4.5z"/><path d="m44.9 39.9c0 6-4.4 10.6-10.2 10.6-5.8-.1-10-4.4-10.1-10.3-.1-6.1 4.2-10.6 10-10.7 5.8-.2 10.3 4.4 10.3 10.4zm-16-.1c0 3.7 2.3 6.3 5.8 6.3 3.4.1 6-2.6 6-6.1 0-3.6-2.5-6.3-5.8-6.4-3.5 0-6 2.6-6 6.2z"/><path d="m99.6 39.8c.1-6 4.6-10.5 10.4-10.4s10 4.7 9.9 10.8c-.1 5.9-4.5 10.2-10.2 10.2-5.8 0-10.2-4.6-10.1-10.6zm16 .1c0-3.7-2.4-6.3-5.9-6.2-3.3 0-5.9 2.7-5.8 6.3 0 3.6 2.5 6.2 5.9 6.2s5.8-2.6 5.8-6.3z"/><circle cx="20.2" cy="30.1" r="3.1"/><circle cx="49.3" cy="30.1" r="3.1"/><ellipse cx="34.7" cy="39.9" rx="2.5" ry="2.5" transform="matrix(.1614 -.9869 .9869 .1614 -10.274 67.7635)"/><circle cx="95.1" cy="30.2" r="3.1"/><circle cx="124.3" cy="30.2" r="3.1"/><ellipse cx="109.7" cy="40" rx="2.5" ry="2.5" transform="matrix(.1614 -.9869 .9869 .1614 52.5659 141.7993)"/></g></svg>