<svg enable-background="new 0 0 112.5 112.3" viewBox="0 0 112.5 112.3" xmlns="http://www.w3.org/2000/svg"><g fill="#7e7c7c"><path d="m109.2 105.8h-1v-40.3c0-1.8-1.5-3.3-3.3-3.3h-20.4v-58.9c0-1.8-1.5-3.3-3.3-3.3h-50c-1.8 0-3.3 1.5-3.3 3.3v21.6h-20.3c-1.8 0-3.3 1.5-3.3 3.3v77.6h-1c-1.8 0-3.3 1.5-3.3 3.3s1.5 3.3 3.3 3.3h105.9c1.8 0 3.3-1.5 3.3-3.3 0-1.9-1.5-3.3-3.3-3.3zm-7.6-37v8.7h-17v-8.7zm-73.7-3.5h-17v-14.2h17zm-17 6.6h17v14.2h-17zm17-40.4v13h-17v-13zm-17 61.2h17v13h-17zm23.6-86.1h43.5v99.2h-7v-18.5c0-1.8-1.5-3.3-3.3-3.3h-22.9c-1.8 0-3.3 1.5-3.3 3.3v18.5h-7zm13.6 99.2v-15.2h16.3v15.2zm36.4 0v-21.7h17v21.7z"/><path d="m44.4 20h23.7c1.8 0 3.3-1.5 3.3-3.3s-1.5-3.3-3.3-3.3h-23.7c-1.8 0-3.3 1.5-3.3 3.3s1.5 3.3 3.3 3.3z"/><path d="m44.4 33.9h23.7c1.8 0 3.3-1.5 3.3-3.3s-1.5-3.3-3.3-3.3h-23.7c-1.8 0-3.3 1.5-3.3 3.3s1.5 3.3 3.3 3.3z"/><path d="m44.4 47.8h23.7c1.8 0 3.3-1.5 3.3-3.3s-1.5-3.3-3.3-3.3h-23.7c-1.8 0-3.3 1.5-3.3 3.3s1.5 3.3 3.3 3.3z"/><path d="m44.4 61.8h23.7c1.8 0 3.3-1.5 3.3-3.3s-1.5-3.3-3.3-3.3h-23.7c-1.8 0-3.3 1.5-3.3 3.3s1.5 3.3 3.3 3.3z"/><path d="m44.4 75.7h23.7c1.8 0 3.3-1.5 3.3-3.3s-1.5-3.3-3.3-3.3h-23.7c-1.8 0-3.3 1.5-3.3 3.3s1.5 3.3 3.3 3.3z"/></g></svg>