<svg enable-background="new 0 0 183.9 132.9" viewBox="0 0 183.9 132.9" xmlns="http://www.w3.org/2000/svg"><g fill="#e60028"><path d="m62.8 10c0-.1 0-.1 0-.2-.1-.3-.2-.6-.3-.8-.2-.2-.3-.5-.6-.6-.2-.2-.5-.3-.8-.4s-.6-.1-.9 0-.6.2-.8.3c-.2.2-.5.3-.6.6 0 .1-.1.1-.1.2-.1.2-.2.4-.3.6l-3.3 13.8c-.1.3-.1.5 0 .8.1.2.2.5.3.7.2.2.4.4.6.5.2.2.5.3.8.3.3.1.6.1.9.1s.6-.1.8-.2.4-.3.6-.5.3-.4.3-.7l3.3-13.8c.2-.2.2-.5.1-.7z"/><path d="m38.3 10.9c0-.1-.1-.1-.1-.2-.2-.2-.5-.3-.7-.4-.3-.1-.6-.1-.9-.1s-.6.1-.9.2-.5.3-.7.5-.3.5-.4.7c-.1.3-.1.6-.1.8v.2c0 .2 0 .4.1.6l6 12.9c.1.2.3.4.5.6s.4.3.7.3c.3.1.5.1.8.1s.6-.1.9-.2.5-.3.8-.5c.2-.2.4-.4.5-.7.1-.2.2-.5.2-.7 0-.3 0-.5-.2-.7l-6-12.9c-.2-.2-.4-.4-.5-.5z"/><path d="m17.9 24c-.1 0-.1 0-.2-.1-.3 0-.6 0-.9 0-.3.1-.6.2-.8.3-.2.2-.5.4-.6.6-.2.3-.3.5-.3.8s0 .6 0 .9c.1.3.2.5.3.8 0 .1.1.1.1.2.1.2.3.3.5.5l12 7.6c.2.1.5.2.7.3.3 0 .5 0 .7-.1s.5-.2.7-.4.4-.4.6-.7.3-.6.4-.8c.1-.3.1-.6.1-.8 0-.3-.1-.5-.2-.7s-.3-.4-.5-.5l-12-7.6c-.2-.2-.4-.3-.6-.3z"/><path d="m133.5 1.2c11.3 0 20.2 2.5 28.2 8.3 14.9 10.8 15.5 29.6 1.1 41-10.5 8.3-22.6 10.6-35.7 8.6-2.4-.4-4.1 0-5.9 1.5-1.7 1.4-3.4 2.8-5.3 3.7-1 .4-3 .2-3.6-.5-.5-.7-.3-3 .4-3.6 3-2.5 6.2-4.8 9.5-6.9.8-.5 2.3-.2 3.4 0 11.3 2.3 22.1.9 31.9-5.5 4.5-2.9 8-6.8 9.5-12.1 2.3-8-.3-14.6-6.3-20-13.3-11.8-36.7-12.1-50.4-.7-9.4 7.8-10.4 19-2.5 28.4 1.8 2.2 3.8 4.2 5.3 6.6.5.8.3 2.8-.3 3.4s-2.8.7-3.4.2c-5.3-5.8-11.2-11.3-12.2-19.9-1.1-9.1 2.3-16.4 9-22.3 8.2-7.2 18.1-10.1 27.3-10.2z"/><path d="m123.7 29.4c-.2 0-.5 0-.7-.1s-.4-.2-.6-.4-.3-.3-.4-.6c-.1-.2-.1-.4-.1-.7v-.1c0-.7.2-1.4.4-2 .3-.6.7-1.2 1.2-1.7s1.1-.8 1.7-1.1 1.3-.4 2.1-.4 1.4.1 2.1.4c.6.3 1.2.7 1.7 1.1.5.5.9 1.1 1.2 1.7s.4 1.3.4 2.1c0 .7-.1 1.4-.4 2s-.7 1.2-1.1 1.6c-.5.5-1 .8-1.7 1.1-.6.3-1.3.4-2 .5v.3c0 .2 0 .5-.1.7s-.2.4-.3.5c-.1.2-.3.3-.5.4s-.4.1-.7.1c-.2 0-.5 0-.7-.1s-.4-.2-.5-.4-.3-.3-.4-.5-.1-.4-.1-.7v-2c0-.2 0-.5.1-.7s.2-.4.4-.5c.2-.2.3-.3.5-.4s.4-.1.7-.1h1.5c.3 0 .5 0 .7-.1s.4-.2.6-.4.3-.4.4-.6.2-.5.2-.7 0-.5-.1-.7-.2-.4-.4-.6-.4-.3-.6-.4-.5-.2-.8-.2-.5 0-.7.1-.5.2-.6.4c-.2.2-.3.4-.4.6s-.2.5-.2.8c0 .2 0 .5-.1.7s-.2.4-.3.6-.3.3-.5.4-.7.1-.9.1z"/><path d="m124 37.5c0-.2 0-.5.1-.7s.2-.4.4-.6.3-.3.6-.4c.2-.1.4-.1.7-.1.2 0 .5 0 .7.1s.4.2.6.4.3.3.4.6c.1.2.1.4.1.7 0 .2 0 .5-.1.7s-.2.4-.4.6-.3.3-.6.4c-.2.1-.4.1-.7.1-.2 0-.5 0-.7-.1s-.4-.2-.6-.4-.3-.3-.4-.6c0-.2-.1-.5-.1-.7z"/><path d="m134.5 24.1c0-.2 0-.5.1-.7s.2-.4.4-.5.3-.3.5-.4.4-.1.7-.1c.2 0 .5 0 .7.1s.4.2.5.4.3.3.4.5.1.4.1.7v8.9c0 .2 0 .5-.1.7s-.2.4-.4.5c-.2.2-.3.3-.5.4s-.4.1-.7.1c-.2 0-.5 0-.7-.1s-.4-.2-.5-.4-.3-.3-.4-.5-.1-.4-.1-.7zm0 13.3c0-.2 0-.5.1-.7s.2-.4.4-.6.3-.3.6-.4c.2-.1.4-.1.7-.1.2 0 .5 0 .7.1s.4.2.6.4.3.3.4.6c.1.2.1.4.1.7 0 .2 0 .5-.1.7s-.2.4-.4.6-.3.3-.6.4-.4.1-.7.1c-.2 0-.5 0-.7-.1s-.4-.2-.6-.4-.3-.3-.4-.6-.1-.5-.1-.7z"/><path d="m142 29.4c-.2 0-.5 0-.7-.1s-.4-.2-.6-.4-.3-.3-.4-.6c-.1-.2-.1-.4-.1-.7v-.1c0-.7.2-1.4.4-2 .3-.6.7-1.2 1.2-1.7s1.1-.8 1.7-1.1 1.3-.4 2.1-.4 1.4.1 2.1.4c.6.3 1.2.7 1.7 1.1.5.5.9 1.1 1.2 1.7s.4 1.3.4 2.1c0 .7-.1 1.4-.4 2s-.7 1.2-1.1 1.6c-.5.5-1 .8-1.7 1.1-.6.3-1.3.4-2 .5v.3c0 .2 0 .5-.1.7s-.2.4-.3.5-.3.3-.5.4-.4.1-.7.1c-.2 0-.5 0-.7-.1s-.4-.2-.5-.4-.3-.3-.4-.5-.1-.4-.1-.7v-2c0-.2 0-.5.1-.7s.2-.4.4-.5c.2-.2.3-.3.5-.4s.4-.1.7-.1h1.5c.3 0 .5 0 .7-.1s.4-.2.6-.4.3-.4.4-.6.2-.5.2-.7 0-.5-.1-.7-.2-.4-.4-.6-.4-.3-.6-.4-.5-.2-.8-.2-.5 0-.7.1-.5.2-.6.4c-.2.2-.3.4-.4.6s-.2.5-.2.8c0 .2 0 .5-.1.7s-.2.4-.3.6-.3.3-.5.4c-.4 0-.7.1-.9.1zm.4 8.1c0-.2 0-.5.1-.7s.2-.4.4-.6.3-.3.6-.4c.2-.1.4-.1.7-.1.2 0 .5 0 .7.1s.4.2.6.4.3.3.4.6c.1.2.1.4.1.7 0 .2 0 .5-.1.7s-.2.4-.4.6-.3.3-.6.4c-.2.1-.4.1-.7.1-.2 0-.5 0-.7-.1s-.4-.2-.6-.4-.3-.3-.4-.6c-.1-.2-.1-.5-.1-.7z"/><path d="m74.4 88.3c-.9 0-1.8-.5-2.2-1.4-1.3-2.7-4.1-4.4-7.1-4.4-2.8 0-5.4 1.4-6.8 3.7-.7 1.2-2.2 1.5-3.4.8s-1.5-2.2-.8-3.4c2.3-3.7 6.5-6.1 11-6.1 4.9 0 9.5 2.8 11.6 7.1.6 1.2.1 2.7-1.1 3.3-.4.4-.8.4-1.2.4z"/><path d="m86.5 106.3c22.6-20.7 16.2-50.5.8-64.2-16.6-14.7-41.7-14.2-58.1 1.7-15.4 14.9-18.4 43.4 2.3 62.4-.8.7-1.5 1.3-2.3 2-5.3 4.2-9.8 9.2-13.1 15.2-.6 1.1-1.2 2.2-1.6 3.4-.7 2-.4 3.8 1.6 4.8 2.1 1 3.7.1 4.9-1.9 2.5-3.9 5-7.9 7.9-11.4 1.8-2.2 4.4-3.8 6.6-5.7 1.7-1.4 3.3-1.7 5.4-.6 2.1 1.2 4.4 1.1 5.5-1.4s-.3-4-2.6-5.2c-15.8-8.1-23.1-24.3-18.6-41.2 4.2-15.7 19.6-26.5 36.2-25.5 16.2 1 29.9 13.8 32.1 29.7 2.4 17.6-6.9 32.8-23.8 38.7-.8.3-1.6.4-2.4.8-2 1-2.9 2.8-1.8 4.6.7 1.1 2.9 2.2 4.2 2 2.6-.4 5-1.9 7.6-2.6 1.4-.3 3.3-.3 4.5.4 5.9 3.7 10.3 8.9 13.9 14.9.6 1.1 1.6 2.5 2.7 2.7 1.2.3 3.2-.2 3.8-1.1.7-1 .8-3.1.2-4.2-3.1-6.3-7.6-11.6-13.1-16-.9-.7-1.9-1.5-2.8-2.3z"/><path d="m53.8 60.8c-2.6-.1-4.4 1.7-4.4 4.1s1.6 4.1 4 4.2c2.5.1 4.4-1.7 4.4-4.1.1-2.4-1.6-4.2-4-4.2z"/><path d="m70.7 64.9c-.1 2.3 1.6 4.1 4 4.3 2.5.1 4.4-1.5 4.4-4 .1-2.4-1.5-4.1-3.9-4.2-2.6-.3-4.5 1.4-4.5 3.9z"/></g></svg>