<svg enable-background="new 0 0 139.1 135.7" viewBox="0 0 139.1 135.7" xmlns="http://www.w3.org/2000/svg"><g fill="#cfcfcf"><path d="m57.2 121.1-.4 2 .4-2c-1.1-.2-2.2.5-2.4 1.6s.5 2.2 1.6 2.4h.4c1 0 1.8-.7 2-1.6.2-1.1-.5-2.2-1.6-2.4z"/><path d="m72.6 121.8.2 2-.2-2c-1.1.1-1.9 1.1-1.8 2.2.1 1 1 1.8 2 1.8h.2.1c1.1-.1 1.9-1.1 1.8-2.2-.1-1.2-1.1-2-2.3-1.8z"/><path d="m64.9 122c-1.1-.1-2.1.8-2.1 1.9s.8 2.1 1.9 2.1h.1c1.1 0 2-.8 2-1.9.1-1.1-.8-2-1.9-2.1z"/><path d="m49.7 119.1c-1.1-.4-2.2.2-2.6 1.2-.4 1.1.2 2.2 1.2 2.6.2.1.5.1.7.1.8 0 1.6-.5 1.9-1.3.4-1.1-.1-2.3-1.2-2.6z"/><path d="m80.3 120.3.5 2-.5-2c-1.1.3-1.7 1.4-1.5 2.5.2.9 1.1 1.5 2 1.5.2 0 .3 0 .5-.1h.1c1.1-.3 1.7-1.4 1.4-2.5-.3-1-1.4-1.6-2.5-1.4z"/><path d="m87.6 117.8.8 1.9-.8-1.9c-1 .4-1.5 1.6-1.1 2.7.3.8 1.1 1.2 1.9 1.2.3 0 .5-.1.8-.2 1-.5 1.5-1.6 1-2.7-.4-1-1.6-1.4-2.6-1z"/><path d="m42 25.7c.3 0 .7-.1 1-.2 1-.5 1.4-1.7.8-2.7-.5-1-1.7-1.4-2.7-.8-1 .5-1.3 1.7-.8 2.7.3.6 1 1 1.7 1z"/><path d="m18.6 48.3c.3.2.6.2.9.2.7 0 1.4-.4 1.8-1.1v-.1c.5-1 .1-2.2-.9-2.7s-2.2-.1-2.7.9c-.4 1 0 2.2.9 2.8z"/><path d="m15.8 55.9c.2.1.4.1.6.1.8 0 1.6-.5 1.9-1.4v-.1c.3-1.1-.3-2.2-1.3-2.5-1.1-.3-2.2.3-2.5 1.3-.3 1.1.2 2.2 1.3 2.6z"/><path d="m22.6 41.2c.4.3.8.4 1.2.4.6 0 1.2-.3 1.6-.8.6-.9.4-2.2-.5-2.8s-2.2-.4-2.8.5l1.6 1.2-1.6-1.2c-.6.8-.4 2 .5 2.7z"/><path d="m35.2 30.1c.4 0 .9-.1 1.2-.4.9-.7 1.1-1.9.4-2.8s-1.9-1.1-2.8-.4h-.1c-.9.7-1.1 1.9-.4 2.8.4.5 1 .8 1.7.8z"/><path d="m14 86.5c.3.9 1.1 1.4 1.9 1.4.2 0 .4 0 .6-.1 1.1-.3 1.7-1.4 1.3-2.5-.3-1.1-1.4-1.7-2.5-1.4-1 .3-1.6 1.4-1.3 2.6 0-.1 0 0 0 0z"/><path d="m29.1 35.4c.5 0 1.1-.2 1.4-.6.8-.8.8-2.1 0-2.9s-2.1-.8-2.9 0c-.8.8-.8 2.1 0 2.9.4.4.9.6 1.5.6z"/><path d="m16.2 77.7c-.1-1.1-1.1-1.9-2.2-1.7-1.1.1-1.9 1.1-1.8 2.2v.1c.1 1 1 1.7 2 1.7h.3c1.1-.2 1.9-1.2 1.7-2.3z"/><path d="m13.7 71.9c1.1 0 2-.9 2.1-2v-.1c0-1.1-.9-2-2-2s-2 .9-2 2c-.1 1.1.8 2.1 1.9 2.1z"/><path d="m14.1 63.8h.4c1 0 1.8-.7 2-1.7v-.1c.2-1.1-.6-2.1-1.7-2.3s-2.1.6-2.3 1.7c-.2 1.2.5 2.2 1.6 2.4z"/><path d="m109.5 41.8c.4.6 1 .9 1.7.9.4 0 .8-.1 1.1-.4.9-.6 1.2-1.9.5-2.8l-1.7 1.1 1.7-1.1c-.6-.9-1.9-1.2-2.8-.5-1 .6-1.2 1.9-.5 2.8z"/><path d="m119.8 62.2c-1.1.1-1.9 1.1-1.8 2.2v.1c.1 1 1 1.7 2 1.7h.3c1.1-.2 1.9-1.2 1.7-2.3-.1-1.1-1.1-1.9-2.2-1.7z"/><path d="m116.4 56.5c.3.9 1.1 1.5 1.9 1.5.2 0 .4 0 .6-.1 1.1-.3 1.7-1.4 1.4-2.5-.3-1.1-1.4-1.7-2.5-1.4s-1.8 1.4-1.4 2.5z"/><path d="m113.5 48.9c.4.7 1.1 1.1 1.8 1.1.3 0 .6-.1.9-.2 1-.5 1.4-1.7.9-2.7l-1.8.9 1.8-.9c-.5-1-1.7-1.4-2.7-1-1 .5-1.4 1.7-.9 2.8z"/><path d="m104.4 35.5c.4.4.9.6 1.4.6s1-.2 1.4-.6c.8-.8.8-2 0-2.8s-2-.9-2.9-.1c-.7.8-.8 2 .1 2.9z"/><path d="m120.4 70.6c-1.1 0-2 .8-2.1 2-.1 1.1.8 2 1.9 2.1h.1c1.1 0 2-.8 2-1.9v-.1c.1-1.1-.8-2.1-1.9-2.1z"/><path d="m91.4 25.6c.3.2.7.3 1 .3.7 0 1.4-.4 1.8-1.1.5-1 .2-2.2-.8-2.7l-1 1.8 1-1.8c-1-.5-2.2-.2-2.7.8-.6.9-.2 2.2.7 2.7z"/><path d="m98.3 30c.4.3.8.4 1.3.4.6 0 1.2-.3 1.6-.8.7-.9.5-2.2-.4-2.8-.9-.7-2.2-.5-2.8.4-.8.9-.6 2.1.3 2.8z"/></g><path d="m137.2 101.2-9.5-9.5c-.8-.8-1.9-1.3-3-1.3s-2.2.4-3 1.3l-.2.2-.6-.6c-.8-.8-1.4-1.7-1.8-2.6 0-.1-.1-.3-.1-.4-.3-.9-.5-1.8-.5-2.7v-2.7c.2.1.4.2.6.2h.3c1 0 1.8-.7 2-1.7.2-1.1-.5-2.2-1.6-2.4-.5-.1-1 0-1.4.2-.1-2.9-1.3-5.6-3.3-7.6l-9.2-9.2c-2.1-2.1-4.8-3.2-7.7-3.2-2.3 0-4.4.7-6.2 2l-1-1v-23.1c0-2.8-1-5.5-2.8-7.6-1.3-1.5-2-3.4-2-5.4v-1.7h.1c2.4 0 4.3-1.9 4.3-4.3v-13.4c0-2.4-1.9-4.3-4.3-4.3h-37.8c-2.4 0-4.3 1.9-4.3 4.3v13.4c0 2.4 1.9 4.3 4.3 4.3h.3v.9c0 2.2-.8 4.2-2.4 5.8l-4.1 4.1c-2.2 2.2-3.4 5-3.4 8.1v13c0 1.8.4 3.4 1.2 4.9-2.7.2-5.2 1.3-7.1 3.2l-9.2 9.2c-2.2 2.2-3.4 5-3.4 8.1v5.8c0 2.2-.8 4.2-2.4 5.8l-.6.6-.2-.2c-.8-.8-1.9-1.3-3-1.3s-2.2.4-3 1.3l-9.5 9.5c-1.7 1.7-1.7 4.4 0 6l3.2 3.3c.8.8 2.1.8 2.9 0s.8-2.1 0-2.9l-3.2-3.3c-.1-.1-.1-.2 0-.3l9.5-9.5c.1-.1.2-.1.3 0l1.6 1.7 22.5 22.6 2.5 2.5c.1.1.1.2 0 .3l-9.5 9.5c-.1.1-.2.1-.3 0l-17.7-17.8c-.8-.8-2.1-.8-2.9 0s-.8 2.1 0 2.9l17.9 17.8c.8.8 1.9 1.3 3 1.3s2.2-.4 3-1.3l9.5-9.5c1.7-1.7 1.7-4.4 0-6l-.1-.1 1.2-1.2c1.4-1.4 3.3-2.2 5.2-2.4 2.8-.2 5.4-1.4 7.4-3.3l8.7-8.7c2.5-.7 4.5-2.7 5-5.3.9.4 1.9.7 3 .7 3.8 0 6.9-3.1 6.9-6.9v-4.8c.9.4 1.8.6 2.9.6 3.8 0 6.9-3.1 6.9-6.9v-14.3l6.2 6.2c.4.4.9.6 1.4.6s1-.2 1.4-.6c.8-.8.8-2.1 0-2.9l-5.2-5.2c1-.6 2.1-.8 3.3-.8 1.8 0 3.6.7 4.9 2l9.2 9.2c1.4 1.4 2.2 3.3 2.2 5.3v5.8c0 3.3 1.3 6.3 3.6 8.6l.6.6-2.9 2.9-17.8 17.9-1-1-.2-.2c-2.1-2.1-4.9-3.4-7.8-3.5-1.8-.1-3.5-.9-4.8-2.2l-6.6-6.6c-.8-.8-2.1-.8-2.9 0s-.8 2.1 0 2.9l6.6 6.6c2 2 4.6 3.2 7.4 3.3 2 .1 3.8 1 5.2 2.4l.1.1.2.2.9.9-.1.1c-1.7 1.7-1.7 4.4 0 6l9.5 9.5c.8.8 1.9 1.3 3 1.3s2.2-.4 3-1.3l26.7-26.7c1.7-1.7 1.7-4.4 0-6.1zm-17.4-20.1-.4-.1zm-65 27.5c-1.3 1.3-3 2-4.8 2.2-3 .2-5.7 1.5-7.8 3.5l-1.2 1.2-1.1-1.1-19.5-19.6.6-.6c2.3-2.3 3.6-5.4 3.6-8.6v-5.8c0-2 .8-3.8 2.2-5.3l9.2-9.2c1.3-1.3 3-2 4.9-2 1.2 0 2.3.3 3.3.9l-5.2 5.2c-.8.8-.8 2.1 0 2.9.4.4.9.6 1.4.6s1-.2 1.4-.6l6.2-6.3v25.2c0 3.8 3.1 6.9 6.9 6.9 1.1 0 2.1-.2 3-.7.4 2 1.7 3.7 3.4 4.7zm32.1-28.5c0 1.6-1.3 2.9-2.9 2.9s-2.9-1.3-2.9-2.9v-22.5c0-1.1-.9-2-2-2s-2 .9-2 2v33.6c0 1.6-1.3 2.9-2.9 2.9-1.4 0-2.6-1-2.8-2.4v-34.2c0-1.1-.9-2-2-2-.4 0-.7.1-1 .3-.6.3-1.1 1-1.1 1.8v33.6.8 4c0 1.6-1.3 2.9-2.9 2.9s-2.8-1.3-2.8-2.9v-38.5c0-1.1-.9-2-2-2s-2 .9-2 2v33.7c0 1.6-1.3 2.9-2.8 2.9-1.6 0-2.9-1.3-2.9-2.9v-37.6c0-1.1-.9-2-2-2s-2 .9-2 2v7c-.2.1-.3.1-.5.2-2.6-1-4.5-3.5-4.5-6.5v-13c0-2 .8-3.8 2.2-5.3l4.1-4.1c2.3-2.3 3.6-5.4 3.6-8.6v-.9h4.1c1.1 0 2-.9 2-2s-.9-2-2-2h-8.4c-.1 0-.2-.1-.2-.2v-13.5c0-.1.1-.2.2-.2h37.7c.1 0 .2.1.2.2v13.4c0 .1-.1.2-.2.2h-19.8c-1.1 0-2 .9-2 2s.9 2 2 2h15.7v1.7c0 3 1.1 5.8 3 8 1.2 1.4 1.8 3.1 1.8 4.9zm47.5 24.3-26.7 26.7s-.1.1-.2.1-.1 0-.2-.1l-9.5-9.5c-.1-.1-.1-.2 0-.3l1.5-1.5 15.5-15.5 9.7-9.7c.1-.1.2-.1.3 0l9.5 9.5c.2 0 .2.2.1.3z" fill="#7e7c7c"/><path d="m54.9 9.3c-1.2 0-2.2 1-2.2 2.2s1 2.2 2.2 2.2 2.2-1 2.2-2.2c-.1-1.3-1-2.2-2.2-2.2z" fill="#cfcfcf"/><path d="m125.4 101.4c-1.2 0-2.2 1-2.2 2.2s1 2.2 2.2 2.2 2.2-1 2.2-2.2c-.1-1.2-1-2.2-2.2-2.2z" fill="#cfcfcf"/><path d="m34.2 122c0-1.2-1-2.2-2.2-2.2s-2.2 1-2.2 2.2 1 2.2 2.2 2.2 2.2-1 2.2-2.2z" fill="#cfcfcf"/></svg>