<svg enable-background="new 0 0 125.5 135.7" viewBox="0 0 125.5 135.7" xmlns="http://www.w3.org/2000/svg"><g fill="#c4012b"><path d="m63.7 72.7-1-.6c-13.2-8.1-19.9-15.6-20.5-22.9v-.2-2.2c.6-7.1 6-10.7 10.6-11.1.7-.1 1.3-.1 1.9-.1 4.3 0 6.9 1.5 9 3.4 2.1-1.9 4.7-3.4 9-3.4.6 0 1.3 0 1.9.1 4.7.4 10 4.1 10.6 11.1v.2 2.1c-.6 7.3-7.4 14.8-20.5 22.9zm-17.6-23.9c.6 5.7 6.5 12.2 17.6 19.2 11.1-7 17-13.5 17.6-19.2v-1.8c-.5-4.8-4-7.2-7-7.5-.6 0-1.1-.1-1.6-.1-3.5 0-5.2 1.1-7.6 3.6l-1.4 1.5-1.4-1.5c-2.4-2.5-4-3.6-7.6-3.6-.5 0-1 0-1.6.1-3 .3-6.5 2.7-7 7.5z"/><path d="m121.1 55-13.8-36.3c-.8-2.1-2.5-3.9-4.6-4.8-2.1-1-4.6-1-6.7-.1-.2.1-.3.2-.4.2-18.7-16.8-47-16.8-65.6 0-.1-.1-.3-.2-.4-.2-2.2-.9-4.6-.8-6.7.1s-3.8 2.6-4.6 4.8l-14 36.3c-3.7 9.7-3.6 20.3.3 29.9l7.3 17.5h-.9c-1.3 0-2.3 1.1-2.3 2.3v18.8c0 1.3 1.1 2.3 2.3 2.3v9.4h4.7v-9.4h23.5v9.4h4.8v-9.4c1.3 0 2.3-1.1 2.3-2.3v-18.8c0-1.3-1.1-2.3-2.3-2.3v-6-.1c12 5 25.5 5 37.6 0v.1 6c-1.3 0-2.3 1.1-2.3 2.3v18.8c0 1.3 1.1 2.3 2.3 2.3v9.4h4.7v-9.4h23.5v9.4h4.7v-9.4c1.3 0 2.3-1.1 2.3-2.3v-18.8c0-1.3-1.1-2.3-2.3-2.3h-.9l7.3-17.5c3.8-9.6 3.9-20.3.2-29.9zm-112.1 28.1c-3.5-8.5-3.6-17.9-.3-26.4l13.8-36.3c.4-1 1.1-1.8 2.1-2.2s2.1-.5 3.1-.1 1.8 1.1 2.2 2.1c.4.9.4 2 0 2.9l-8.3 19.6c-.7 1.7-1.1 3.6-1.1 5.4v.1.1 28.1h4.7v-28c0-.3.1-.6.1-.9.5-1.9 2.4-3 4.3-2.6 1.6.4 2.7 1.8 2.7 3.4v18.2c0 2.6.6 5.1 1.7 7.4 3.5 7 5.3 14.7 5.3 22.4v6h-22.2zm32.6 38.1h-28.2v-14.1h28.2zm21.1-25.8c-6.6 0-13.1-1.5-19.1-4.3-.7-6.7-2.5-13.2-5.5-19.2-.8-1.7-1.2-3.5-1.3-5.3v-18.2c0-4.5-3.7-8.2-8.2-8.2-.3 0-.6 0-.9.1l6.6-15.3c.9-2.1.9-4.5 0-6.6-.2-.5-.5-1-.8-1.4 16.8-14.6 41.7-14.6 58.4 0-.3.4-.5.9-.8 1.4-.9 2.1-.9 4.5 0 6.6l6.5 15.2c-.3 0-.6-.1-.8-.1-4.5 0-8.2 3.7-8.2 8.2v18.2c0 1.8-.4 3.7-1.3 5.3-3 6-4.8 12.5-5.5 19.2-5.9 2.9-12.4 4.4-19.1 4.4zm49.4 25.8h-28.2v-14.1h28.2zm4.4-38.1-8 19.3h-22.3v-6c0-7.8 1.8-15.5 5.3-22.4 1.1-2.3 1.7-4.8 1.7-7.4v-18.2c0-1.9 1.6-3.5 3.5-3.5 1.6 0 3 1.1 3.4 2.7 0 .3.1.6.1.9v28h4.7v-28-.1-.1c0-1.9-.4-3.7-1.1-5.4l-8.3-19.6c-.4-.9-.4-2 0-2.9.4-1 1.2-1.7 2.2-2.1s2.1-.4 3.1.1c1 .4 1.7 1.2 2.1 2.2l13.8 36.3c3.3 8.3 3.2 17.7-.2 26.2z"/><path d="m50.3 12.8 1.5 4.5c3.6-1.2 7.3-1.8 11-1.8 5.3 0 10.6 1.2 15.4 3.5l2.1-4.2c-9.4-4.5-20.2-5.3-30-2z"/><path d="m45.3 14.8c-1.7.8-3.4 1.8-5 2.9l2.6 3.9c1.4-1 2.9-1.8 4.4-2.6z"/><path d="m93.3 16.2c.7-.8 1.5-1.5 2.3-2.2-8.7-7.9-20.2-12.6-32.8-12.6-12.7 0-24.2 4.8-32.9 12.6.2.2.4.4.7.6 1 .7 2 1.5 2.8 2.3 7.9-6.9 18.2-11 29.4-11 11.3 0 21.7 4.2 29.6 11.2.3-.4.6-.6.9-.9z"/><path d="m81.7 94.3c0-1 0-2 .1-3-5.8 2.7-12.2 4.3-19 4.3-6.9 0-13.4-1.6-19.2-4.3.2 1.2.3 2.4.4 3.6v1.5c5.8 2.4 12.1 3.7 18.8 3.7 6.8 0 13.2-1.4 19.1-3.8-.1-.7-.2-1.4-.2-2z"/></g></svg>