<?xml version="1.0" encoding="utf-8"?>
<!-- Generator: Adobe Illustrator 22.1.0, SVG Export Plug-In . SVG Version: 6.00 Build 0)  -->
<svg version="1.1" id="Слой_1" xmlns="http://www.w3.org/2000/svg" xmlns:xlink="http://www.w3.org/1999/xlink" x="0px" y="0px"
	 viewBox="0 0 125.5 135.7" style="enable-background:new 0 0 125.5 135.7;" xml:space="preserve">
<style type="text/css">
	.st0{fill:#E60028;}
</style>
<g>
	<path class="st0" d="M63.7,72.7l-1-0.6C49.5,64,42.8,56.5,42.2,49.2V49v-2.2c0.6-7.1,6-10.7,10.6-11.1c0.7-0.1,1.3-0.1,1.9-0.1
		c4.3,0,6.9,1.5,9,3.4c2.1-1.9,4.7-3.4,9-3.4c0.6,0,1.3,0,1.9,0.1c4.7,0.4,10,4.1,10.6,11.1V47v2.1c-0.6,7.3-7.4,14.8-20.5,22.9
		L63.7,72.7z M46.1,48.8C46.7,54.5,52.6,61,63.7,68c11.1-7,17-13.5,17.6-19.2V47c-0.5-4.8-4-7.2-7-7.5c-0.6,0-1.1-0.1-1.6-0.1
		c-3.5,0-5.2,1.1-7.6,3.6l-1.4,1.5L62.3,43c-2.4-2.5-4-3.6-7.6-3.6c-0.5,0-1,0-1.6,0.1c-3,0.3-6.5,2.7-7,7.5V48.8z"/>
	<path class="st0" d="M121.1,55l-13.8-36.3c-0.8-2.1-2.5-3.9-4.6-4.8c-2.1-1-4.6-1-6.7-0.1c-0.2,0.1-0.3,0.2-0.4,0.2
		C76.9-2.8,48.6-2.8,30,14c-0.1-0.1-0.3-0.2-0.4-0.2c-2.2-0.9-4.6-0.8-6.7,0.1s-3.8,2.6-4.6,4.8L4.3,55c-3.7,9.7-3.6,20.3,0.3,29.9
		l7.3,17.5H11c-1.3,0-2.3,1.1-2.3,2.3v18.8c0,1.3,1.1,2.3,2.3,2.3v9.4h4.7v-9.4h23.5v9.4H44v-9.4c1.3,0,2.3-1.1,2.3-2.3v-18.8
		c0-1.3-1.1-2.3-2.3-2.3v-6v-0.1c12,5,25.5,5,37.6,0v0.1v6c-1.3,0-2.3,1.1-2.3,2.3v18.8c0,1.3,1.1,2.3,2.3,2.3v9.4h4.7v-9.4h23.5
		v9.4h4.7v-9.4c1.3,0,2.3-1.1,2.3-2.3v-18.8c0-1.3-1.1-2.3-2.3-2.3h-0.9l7.3-17.5C124.7,75.3,124.8,64.6,121.1,55z M9,83.1
		c-3.5-8.5-3.6-17.9-0.3-26.4l13.8-36.3c0.4-1,1.1-1.8,2.1-2.2s2.1-0.5,3.1-0.1s1.8,1.1,2.2,2.1c0.4,0.9,0.4,2,0,2.9l-8.3,19.6
		c-0.7,1.7-1.1,3.6-1.1,5.4v0.1v0.1v28.1h4.7v-28c0-0.3,0.1-0.6,0.1-0.9c0.5-1.9,2.4-3,4.3-2.6c1.6,0.4,2.7,1.8,2.7,3.4v18.2
		c0,2.6,0.6,5.1,1.7,7.4c3.5,7,5.3,14.7,5.3,22.4v6H17.1L9,83.1z M41.6,121.2H13.4v-14.1h28.2V121.2z M62.7,95.4
		c-6.6,0-13.1-1.5-19.1-4.3c-0.7-6.7-2.5-13.2-5.5-19.2c-0.8-1.7-1.2-3.5-1.3-5.3V48.4c0-4.5-3.7-8.2-8.2-8.2c-0.3,0-0.6,0-0.9,0.1
		L34.3,25c0.9-2.1,0.9-4.5,0-6.6c-0.2-0.5-0.5-1-0.8-1.4C50.3,2.4,75.2,2.4,91.9,17c-0.3,0.4-0.5,0.9-0.8,1.4
		c-0.9,2.1-0.9,4.5,0,6.6l6.5,15.2c-0.3,0-0.6-0.1-0.8-0.1c-4.5,0-8.2,3.7-8.2,8.2v18.2c0,1.8-0.4,3.7-1.3,5.3
		c-3,6-4.8,12.5-5.5,19.2C75.9,93.9,69.4,95.4,62.7,95.4z M112.1,121.2H83.9v-14.1h28.2L112.1,121.2z M116.5,83.1l-8,19.3H86.2v-6
		c0-7.8,1.8-15.5,5.3-22.4c1.1-2.3,1.7-4.8,1.7-7.4V48.4c0-1.9,1.6-3.5,3.5-3.5c1.6,0,3,1.1,3.4,2.7c0,0.3,0.1,0.6,0.1,0.9v28h4.7
		v-28v-0.1v-0.1c0-1.9-0.4-3.7-1.1-5.4l-8.3-19.6c-0.4-0.9-0.4-2,0-2.9c0.4-1,1.2-1.7,2.2-2.1s2.1-0.4,3.1,0.1
		c1,0.4,1.7,1.2,2.1,2.2l13.8,36.3C120,65.2,119.9,74.6,116.5,83.1z"/>
	<path class="st0" d="M50.3,12.8l1.5,4.5c3.6-1.2,7.3-1.8,11-1.8c5.3,0,10.6,1.2,15.4,3.5l2.1-4.2C70.9,10.3,60.1,9.5,50.3,12.8z"/>
	<path class="st0" d="M45.3,14.8c-1.7,0.8-3.4,1.8-5,2.9l2.6,3.9c1.4-1,2.9-1.8,4.4-2.6L45.3,14.8z"/>
	<path class="st0" d="M93.3,16.2c0.7-0.8,1.5-1.5,2.3-2.2C86.9,6.1,75.4,1.4,62.8,1.4C50.1,1.4,38.6,6.2,29.9,14
		c0.2,0.2,0.4,0.4,0.7,0.6c1,0.7,2,1.5,2.8,2.3c7.9-6.9,18.2-11,29.4-11c11.3,0,21.7,4.2,29.6,11.2C92.7,16.7,93,16.5,93.3,16.2z"/>
	<path class="st0" d="M81.7,94.3c0-1,0-2,0.1-3c-5.8,2.7-12.2,4.3-19,4.3c-6.9,0-13.4-1.6-19.2-4.3c0.2,1.2,0.3,2.4,0.4,3.6v1.5
		c5.8,2.4,12.1,3.7,18.8,3.7c6.8,0,13.2-1.4,19.1-3.8C81.8,95.6,81.7,94.9,81.7,94.3z"/>
</g>
</svg>
