<svg enable-background="new 0 0 139.1 135.7" viewBox="0 0 139.1 135.7" xmlns="http://www.w3.org/2000/svg"><g fill="#e60028"><circle cx="96" cy="111.6" r="2.1"/><path d="m83.6 87.8c.1 0 .1.1.2.1.3.2.6.2 1 .2.8 0 1.4-.4 1.8-1.1.2-.3.4-.7.5-1.2s.2-1.1.3-1.6c1.1-4.2 4.7-7.1 8.9-7.1 4.1-.1 7.8 2.6 9 6.5 1.3 4.1 0 7.7-3.8 10.3-1.6 1.1-3.3 2.1-4.8 3.2-2.3 1.6-2.5 4.2-2.3 6.8.1.8.8 1.8 2 1.8 1 0 2.3-.4 2.2-2.6-.2-3.8 1.7-3.4 3.8-4.6 4.5-2.7 7.9-6.4 7.9-12 0-7.6-5.7-13.7-13.1-14-7.2-.3-13.8 5.2-14.4 12.4v.9c-.1.9.2 1.6.8 2z"/><path d="m68.7 31.6c-1-1-2.7-1-3.7 0l-22.9 22.9c-.6.6-1.7.6-2.3 0l-8.9-8.9c-1-1-2.7-1-3.7 0s-1 2.7 0 3.7l8.9 8.9c1.3 1.3 3.1 2 4.9 2s3.5-.7 4.9-2l22.9-22.9c.9-1 .9-2.7-.1-3.7z"/><path d="m130.3 111.2c0-.1 0-.2 0-.4 3.5-6.4 5.4-13.6 5.5-20.9.2-12-4.4-23.4-12.9-32-4.1-4.2-8.9-7.5-14.3-9.8-5.1-2.2-10.5-3.4-16-3.6-.4-11.3-5-21.9-13.1-29.9-8.5-8.4-19.7-13-31.6-13h-.1c-6.1 0-12 1.2-17.6 3.6-5.2 2.3-10 5.6-14.1 9.8-8.5 8.6-13.1 20-12.9 32 .1 7.3 2 14.5 5.5 20.9.1.1.1.3 0 .4l-5 15.4c-.7 2-.2 4.2 1.2 5.7 1.1 1.1 2.6 1.7 4.1 1.7.5 0 1-.1 1.4-.2l17.4-4.6h.3c5.7 2.8 11.8 4.3 18.2 4.5.4 11.2 5 21.8 13 29.8 8.5 8.5 19.7 13.2 31.7 13.2 6.9 0 13.6-1.5 19.8-4.6.1 0 .2-.1.3 0l17.4 4.6c.5.1 1 .2 1.4.2 1.6 0 3.1-.6 4.2-1.8 1.4-1.5 1.9-3.7 1.2-5.7zm-103.7-29.9-17.4 4.6c-.2 0-.3 0-.4-.1-.2-.2-.1-.4-.1-.4l5.1-15.4c.5-1.5.3-3.2-.4-4.6-3.1-5.6-4.8-12-4.9-18.4-.2-10.6 3.9-20.6 11.3-28.2 7.5-7.6 17.5-11.8 28.1-11.8h.1c10.5 0 20.4 4.1 27.9 11.5s11.6 17.3 11.6 27.9c0 10.5-4.1 20.4-11.6 27.9s-17.4 11.6-28 11.6c-6.1 0-12-1.4-17.4-4-1.2-.8-2.6-.9-3.9-.6zm103.8 47.4c-.1.1-.3.2-.4.1l-17.4-4.6c-1.3-.3-2.7-.2-4 .4-5.5 2.7-11.3 4-17.4 4-10.5 0-20.5-4.1-28-11.6-7.1-7-11.2-16.3-11.6-26.2 10.6-.9 20.4-5.4 28-13s12.1-17.5 12.9-28c10.1.4 19.5 4.5 26.7 11.8 7.5 7.6 11.5 17.6 11.3 28.2-.1 6.4-1.8 12.8-4.9 18.4-.8 1.4-.9 3.1-.4 4.6l5.1 15.4c.2.1.2.3.1.5z"/></g></svg>