<svg enable-background="new 0 0 125.5 135.7" viewBox="0 0 125.5 135.7" xmlns="http://www.w3.org/2000/svg"><g fill="#c4012b"><path d="m121.6 59.2c1.8-2.2 1.9-5.3.4-7.7s-4.5-3.5-7.2-2.8l-28.7 7.7c-.9.2-1.9-.1-2.4-.9l-16.1-25c-1.5-2.4-4.5-3.5-7.2-2.8s-4.7 3.2-4.9 6l-1.6 29.6c-.1.9-.7 1.8-1.6 2l-28.7 7.7c-2.8.7-4.7 3.2-4.9 6-.1 2.8 1.6 5.5 4.2 6.5l27.7 10.6c.9.3 1.5 1.2 1.4 2.2l-1.5 29.7c-.2 2.9 1.5 5.5 4.2 6.5.8.3 1.6.5 2.4.5 2 0 3.8-.9 5.1-2.5l18.7-23.1c.6-.7 1.6-1 2.5-.7l27.7 10.6c2.7 1 5.7.2 7.5-2s2-5.3.4-7.7l-16.2-24.9c-.5-.8-.5-1.8.1-2.6zm-22.5 28 16.2 24.9c.5.8.5 1.8-.1 2.6-.6.7-1.6 1-2.5.7l-27.7-10.6c-2.7-1-5.7-.2-7.5 2l-18.7 23.1c-.6.7-1.6 1-2.5.7s-1.5-1.2-1.4-2.2l1.6-29.6c.2-2.8-1.5-5.5-4.2-6.5l-27.8-10.8c-.9-.3-1.5-1.2-1.4-2.2.1-.9.7-1.8 1.6-2l28.7-7.7c2.8-.7 4.7-3.2 4.9-6l1.6-29.6c0-1 .7-1.8 1.6-2 .2-.1.4-.1.6-.1.7 0 1.4.4 1.8 1l16.1 24.9c1.5 2.4 4.5 3.5 7.2 2.8l28.7-7.7c.9-.3 1.9.1 2.4.9s.5 1.8-.1 2.6l-18.7 23.1c-1.8 2.2-1.9 5.3-.4 7.7z"/><path d="m27.4 40.6 9 3.5c1.8.7 3.8.2 5-1.3s1.3-3.6.3-5.2l-5.3-8.1 6.1-7.5c1.2-1.5 1.3-3.6.3-5.1-1-1.6-3-2.3-4.8-1.8l-9.4 2.5-5.3-8.1c-1-1.6-3-2.3-4.8-1.8s-3.1 2.1-3.2 4l-.5 9.7-9.4 2.5c-1.8.5-3.1 2.1-3.2 4s1 3.6 2.8 4.3l9 3.5-.5 9.7c-.1 1.9 1 3.7 2.8 4.3.5.2 1.1.3 1.6.3 1.3 0 2.6-.6 3.4-1.6zm-9.5 4.8.5-9.7c.1-1.9-1-3.6-2.8-4.3l-9-3.5 9.4-2.5c1.8-.5 3.1-2.1 3.2-4l.5-9.7 5.3 8.1c1 1.6 3 2.3 4.8 1.8l9.4-2.5-6.2 7.6c-1.2 1.5-1.3 3.6-.3 5.1l5.3 8.2-9-3.5c-1.8-.7-3.8-.1-5 1.3z"/><path d="m97.9 21.2-4.7 7.3c-.5.8-.5 1.8.1 2.6.6.7 1.6 1 2.5.7l8.1-3.1 5.5 6.8c.6.7 1.6 1 2.5.7s1.5-1.2 1.4-2.2l-.5-8.7 8.1-3.1c.9-.3 1.5-1.2 1.4-2.2-.1-.9-.7-1.8-1.6-2l-8.4-2.3-.4-8.7c-.1-.9-.7-1.8-1.6-2s-1.9.1-2.4.9l-4.7 7.3-8.5-2.2c-.9-.2-1.9.1-2.4.9s-.5 1.8.1 2.6zm5.6-3.3c.9.2 1.9-.1 2.4-.9l1.9-3 .2 3.6c.1.9.7 1.8 1.6 2l3.4.9-3.3 1.3c-.9.3-1.5 1.2-1.4 2.2l.2 3.6-2.2-2.8c-.6-.7-1.6-1-2.5-.7l-3.3 1.3 1.9-3c.5-.8.5-1.8-.1-2.6l-2.2-2.8z"/></g></svg>