<?xml version="1.0" encoding="utf-8"?>
<!-- Generator: Adobe Illustrator 22.1.0, SVG Export Plug-In . SVG Version: 6.00 Build 0)  -->
<svg version="1.1" id="Layer_1" xmlns="http://www.w3.org/2000/svg" xmlns:xlink="http://www.w3.org/1999/xlink" x="0px" y="0px"
	 viewBox="0 0 134.6 134" style="enable-background:new 0 0 134.6 134;" xml:space="preserve">
<style type="text/css">
	.st0{fill:#E60028;}
</style>
<g>
	<path class="st0" d="M24,26.5c0.8,0.8,1.9,0.5,2.7-0.1c0.7-0.8,0.7-2-0.1-2.7c-0.8-0.7-2-0.7-2.7,0.1C23.2,24.6,23.2,25.8,24,26.5z
		"/>
	<path class="st0" d="M17.8,35.3c0.9,0.5,2.1,0.2,2.7-0.6c0.6-0.9,0.3-2.1-0.6-2.7c-0.9-0.6-2.1-0.3-2.7,0.6
		C16.6,33.6,16.9,34.8,17.8,35.3z"/>
	<path class="st0" d="M33.3,19.8c1.5,0,2.4-1.9,1.5-3.1c-0.6-0.8-1.9-1-2.7-0.4c-0.9,0.6-1,1.9-0.4,2.7
		C32.1,19.5,32.7,19.8,33.3,19.8z"/>
	<path class="st0" d="M13.3,45.1c0.9,0.4,2.1-0.2,2.5-1.1c0.4-1-0.1-2.1-1.1-2.5c-1-0.4-2.1,0.1-2.5,1.1
		C11.8,43.6,12.3,44.7,13.3,45.1z"/>
	<path class="st0" d="M10.7,55.6c1,0.2,2.1-0.6,2.2-1.5c0.2-1-0.5-2.1-1.5-2.2c-1-0.2-2.1,0.5-2.2,1.5C8.9,54.4,9.6,55.4,10.7,55.6z
		"/>
	<path class="st0" d="M13.2,83.7c-1,0.4-1.5,1.5-1.1,2.5c0.3,0.8,1,1.2,1.8,1.2c1.2,0,2.3-1.4,1.8-2.6
		C15.3,83.8,14.2,83.3,13.2,83.7z"/>
	<path class="st0" d="M11.3,77c1-0.2,1.7-1.2,1.5-2.2c-0.2-1-1.2-1.7-2.2-1.5c-1,0.2-1.7,1.2-1.5,2.2C9.3,76.6,10.3,77.2,11.3,77z"
		/>
	<path class="st0" d="M10,66.3c2.6-0.1,2.6-3.8,0-3.9c-1.1,0-1.9,0.9-1.9,1.9C8.1,65.5,9,66.3,10,66.3L10,66.3z"/>
	<path class="st0" d="M118.7,94.1c-0.9-0.6-2.1-0.3-2.7,0.6c-0.6,0.9-0.3,2.1,0.6,2.7c1,0.5,1.9,0.3,2.7-0.6
		C119.9,95.8,119.6,94.7,118.7,94.1z"/>
	<path class="st0" d="M117.3,32.6c-0.9,0.6-1.2,1.7-0.6,2.6c0.5,0.9,1.8,1.2,2.6,0.6c0.9-0.6,1.2-1.7,0.6-2.6
		C119.4,32.3,118.2,32,117.3,32.6z"/>
	<path class="st0" d="M110.6,24.1c-0.8,0.7-0.9,1.9-0.2,2.7c0.9,0.8,1.8,0.9,2.7,0.2c0.8-0.7,0.9-1.9,0.2-2.7
		C112.6,23.5,111.4,23.4,110.6,24.1z"/>
	<path class="st0" d="M123.3,84.3c-1-0.4-2.1,0.1-2.5,1.1c-0.5,1.2,0.6,2.6,1.8,2.6c0.8,0,1.5-0.5,1.8-1.2
		C124.8,85.8,124.3,84.7,123.3,84.3L123.3,84.3z"/>
	<path class="st0" d="M126.7,63.1c-1.1,0-1.9,0.8-1.9,1.9c0,1.1,0.9,1.8,1.9,1.9c1.1,0,1.9-0.9,1.9-1.9
		C128.7,64,127.8,63.1,126.7,63.1z"/>
	<path class="st0" d="M123,45.9c0.2,0,0.5,0,0.7-0.1c1-0.4,1.5-1.5,1.1-2.5c-1-2.4-4.4-1.1-3.6,1.4C121.5,45.4,122.2,45.9,123,45.9
		L123,45.9z"/>
	<path class="st0" d="M123.9,54.7c0.2,1,1.3,1.7,2.2,1.6c1-0.2,1.8-1.2,1.6-2.2c-0.2-1-1.2-1.8-2.2-1.6
		C124.5,52.6,123.8,53.6,123.9,54.7z"/>
	<path class="st0" d="M112.4,102.8c-0.8-0.7-2-0.7-2.7,0.1c-0.7,0.8-0.7,2,0.1,2.7c0.9,0.7,1.8,0.7,2.7-0.1
		C113.2,104.8,113.2,103.6,112.4,102.8z"/>
	<path class="st0" d="M126,73.9c-1-0.2-2.1,0.5-2.3,1.5c-0.2,1.1,0.8,2.3,1.9,2.3c0.9,0,1.7-0.6,1.9-1.6
		C127.7,75.1,127,74.1,126,73.9L126,73.9z"/>
	<path class="st0" d="M73,120.7L73,120.7c-1.1,0.1-1.9,1-1.8,2.1c0.1,0.9,1.1,1.9,2.1,1.8c1.1-0.1,1.9-1,1.8-2.1
		C75,121.4,74,120.6,73,120.7z"/>
	<path class="st0" d="M93,115.3c-1,0.5-1.4,1.6-0.9,2.6c0.4,0.9,1.7,1.3,2.6,0.9c1-0.5,1.4-1.6,0.9-2.6
		C95.1,115.2,93.9,114.8,93,115.3z"/>
	<path class="st0" d="M83.2,118.9c-1,0.3-1.6,1.3-1.4,2.4c0.3,0.9,1.4,1.6,2.4,1.4C86.7,121.9,85.7,118.3,83.2,118.9z"/>
	<path class="st0" d="M105.2,16.7C105.2,16.7,105.2,16.7,105.2,16.7c-0.8-0.6-2.1-0.5-2.7,0.3c-0.7,0.8-0.5,2.1,0.3,2.7
		c0.9,0.6,1.8,0.5,2.7-0.3C106.2,18.6,106,17.4,105.2,16.7z"/>
	<path class="st0" d="M101.9,109.9c-0.9,0.6-1,1.8-0.4,2.7c0.8,0.9,1.7,1,2.7,0.4c0.9-0.6,1-1.8,0.4-2.7
		C104,109.4,102.7,109.2,101.9,109.9L101.9,109.9z"/>
	<path class="st0" d="M62.5,120.6L62.5,120.6c-1.1-0.1-2,0.7-2.1,1.7c-0.1,1,0.9,2.1,1.9,2.1c1,0,1.8-0.7,1.9-1.7
		C64.4,121.6,63.6,120.7,62.5,120.6L62.5,120.6z"/>
	<path class="st0" d="M25.6,92.8c-3.9-1.8-8.8-1-11.8,2.1c-4.1,4.1-4.1,10.7,0,14.8l11.9,12c1.8,1.8,4.5-1,2.7-2.7l-11.9-12
		c-2.6-2.6-2.6-6.8,0-9.4c2.5-2.5,6.8-2.5,9.3,0l19.9,20c2.6,2.6,2.6,6.8,0,9.4c-2.9,3-7.5,2.3-10.1-0.8c-1.8-1.8-4.5,1-2.7,2.7
		c9.2,9.7,23.7-1.1,16.8-12.5l3.5-3.5c10.4,0.8,20.6-5,25.2-14.3h10.6c4.3,0,7.7-3.5,7.7-7.7V72.3c3.7-0.5,6.6-3.6,6.6-7.5l0,0
		c0-2.2-1-4.2-2.5-5.6c3.3-3,3.3-8.3,0-11.3c3.3-3,3.3-8.3,0-11.3c4.7-4.2,2.2-12.3-4.1-13.1V9c0-4.3-3.5-7.7-7.7-7.7H64.7
		c-2.5,0-2.5,3.9,0,3.9h24.4C91.2,5.1,93,6.8,93,9v1H45.4V9c0-2.1,1.7-3.9,3.9-3.9h4.9c2.5,0,2.5-3.9,0-3.9h-4.9
		c-4.3,0-7.7,3.5-7.7,7.7v28.2c-5.2-3.3-12.3,0.6-12.3,6.8v45.2L25.6,92.8 M99.6,64.9c0,2-1.7,3.7-3.7,3.7h-3.4
		c-4.9-0.2-4.9-7.2,0-7.4h3.4C97.9,61.1,99.6,62.8,99.6,64.9L99.6,64.9z M99.6,53.6c0,2-1.7,3.7-3.7,3.7h-3.4
		c-4.9-0.2-4.9-7.2,0-7.4h3.4C97.9,49.9,99.6,51.5,99.6,53.6L99.6,53.6z M99.6,42.3c0,2-1.7,3.7-3.7,3.7h-3.4
		c-4.9-0.2-4.9-7.2,0-7.4h3.4C97.9,38.6,99.6,40.3,99.6,42.3L99.6,42.3z M99.6,31.1c-0.1,2-1.7,3.7-3.7,3.7h-3.4
		c-4.9-0.2-4.9-7.2,0-7.4h3.4C97.9,27.4,99.6,29,99.6,31.1z M93,13.9v9.7c-7.2-0.4-10.8,8.4-5.5,13.2c-3.3,2.9-3.3,8.4,0,11.3
		c-3.3,2.9-3.3,8.4,0,11.3C82.2,64,85.8,72.8,93,72.4v9.7H56.4c-1.2-6.6-5-12.7-11-15.9V13.9L93,13.9z M28.8,95.1l3.7-3.8
		C32.8,91,33,90.5,33,90V44c0-5.4,8.4-5.4,8.4,0v23.3c0,0.8,0.5,1.5,1.2,1.8c4.6,2,8,6.1,9.6,11.6c1.8,6.2,0.8,13-2.5,17.8
		c-1.4,2,1.7,4.3,3.2,2.2c0.4-0.6,0.9-1.3,1.2-2h20c-4,6.6-11,10.5-18.8,10.6v0l-2.7-0.1c-0.5,0-1.1,0.2-1.5,0.6l-3.9,3.9L28.8,95.1
		 M89.1,94.8H55.7c0.9-2.8,1.3-5.8,1.2-8.9H93v5C93,93.1,91.2,94.8,89.1,94.8z"/>
	<path class="st0" d="M50.9,28.5c0.9,0.7,1.8,0.7,2.7,0l5.6-5.8c1.7-1.8-1-4.5-2.8-2.7l-5.6,5.8C50.1,26.5,50.1,27.7,50.9,28.5z"/>
</g>
<g>
	<path class="st0" d="M23.9,26.5c0.8,0.8,1.9,0.5,2.7-0.1c0.7-0.8,0.7-2-0.1-2.7c-0.8-0.7-2-0.7-2.7,0.1
		C23.1,24.6,23.1,25.8,23.9,26.5z"/>
	<path class="st0" d="M17.7,35.3c0.9,0.5,2.1,0.2,2.7-0.6c0.6-0.9,0.3-2.1-0.6-2.7c-0.9-0.6-2.1-0.3-2.7,0.6
		C16.5,33.6,16.8,34.8,17.7,35.3z"/>
	<path class="st0" d="M33.2,19.8c1.5,0,2.4-1.9,1.5-3.1c-0.6-0.8-1.9-1-2.7-0.4c-0.9,0.6-1,1.9-0.4,2.7C32,19.5,32.6,19.8,33.2,19.8
		z"/>
	<path class="st0" d="M13.2,45.1c0.9,0.4,2.1-0.2,2.5-1.1c0.4-1-0.1-2.1-1.1-2.5c-1-0.4-2.1,0.1-2.5,1.1
		C11.7,43.6,12.2,44.7,13.2,45.1z"/>
	<path class="st0" d="M10.6,55.6c1,0.2,2.1-0.6,2.2-1.5c0.2-1-0.5-2.1-1.5-2.2c-1-0.2-2.1,0.5-2.2,1.5C8.9,54.4,9.5,55.4,10.6,55.6z
		"/>
	<path class="st0" d="M13.2,83.7c-1,0.4-1.5,1.5-1.1,2.5c0.3,0.8,1,1.2,1.8,1.2c1.2,0,2.3-1.4,1.8-2.6
		C15.3,83.8,14.2,83.3,13.2,83.7z"/>
	<path class="st0" d="M11.3,77c1-0.2,1.7-1.2,1.5-2.2c-0.2-1-1.2-1.7-2.2-1.5c-1,0.2-1.7,1.2-1.5,2.2C9.2,76.6,10.3,77.2,11.3,77z"
		/>
	<path class="st0" d="M9.9,66.3c2.6-0.1,2.6-3.8,0-3.9c-1.1,0-1.9,0.9-1.9,1.9C8,65.5,8.9,66.3,9.9,66.3L9.9,66.3z"/>
	<path class="st0" d="M118.6,94.1c-0.9-0.6-2.1-0.3-2.7,0.6c-0.6,0.9-0.3,2.1,0.6,2.7c1,0.5,1.9,0.3,2.7-0.6
		C119.8,95.8,119.5,94.7,118.6,94.1z"/>
	<path class="st0" d="M117.2,32.6c-0.9,0.6-1.2,1.7-0.6,2.6c0.5,0.9,1.8,1.2,2.6,0.6c0.9-0.6,1.2-1.7,0.6-2.6
		C119.3,32.3,118.1,32,117.2,32.6z"/>
	<path class="st0" d="M110.5,24.1c-0.8,0.7-0.9,1.9-0.2,2.7c0.9,0.8,1.8,0.9,2.7,0.2c0.8-0.7,0.9-1.9,0.2-2.7
		C112.5,23.5,111.3,23.4,110.5,24.1z"/>
	<path class="st0" d="M123.2,84.3c-1-0.4-2.1,0.1-2.5,1.1c-0.5,1.2,0.6,2.6,1.8,2.6c0.8,0,1.5-0.5,1.8-1.2
		C124.7,85.8,124.2,84.7,123.2,84.3L123.2,84.3z"/>
	<path class="st0" d="M126.7,63.1c-1.1,0-1.9,0.8-1.9,1.9c0,1.1,0.9,1.8,1.9,1.9c1.1,0,1.9-0.9,1.9-1.9
		C128.6,64,127.7,63.1,126.7,63.1z"/>
	<path class="st0" d="M122.9,45.9c0.2,0,0.5,0,0.7-0.1c1-0.4,1.5-1.5,1.1-2.5c-1-2.4-4.4-1.1-3.6,1.4
		C121.4,45.4,122.2,45.9,122.9,45.9L122.9,45.9z"/>
	<path class="st0" d="M123.9,54.7c0.2,1,1.3,1.7,2.2,1.6c1-0.2,1.8-1.2,1.6-2.2c-0.2-1-1.2-1.8-2.2-1.6
		C124.4,52.6,123.7,53.6,123.9,54.7z"/>
	<path class="st0" d="M112.3,102.8c-0.8-0.7-2-0.7-2.7,0.1c-0.7,0.8-0.7,2,0.1,2.7c0.9,0.7,1.8,0.7,2.7-0.1
		C113.1,104.8,113.1,103.6,112.3,102.8z"/>
	<path class="st0" d="M125.9,73.9c-1-0.2-2.1,0.5-2.3,1.5c-0.2,1.1,0.8,2.3,1.9,2.3c0.9,0,1.7-0.6,1.9-1.6
		C127.7,75.1,127,74.1,125.9,73.9L125.9,73.9z"/>
	<path class="st0" d="M72.9,120.7L72.9,120.7c-1.1,0.1-1.9,1-1.8,2.1c0.1,0.9,1.1,1.9,2.1,1.8c1.1-0.1,1.9-1,1.8-2.1
		C74.9,121.4,74,120.6,72.9,120.7z"/>
	<path class="st0" d="M92.9,115.3c-1,0.5-1.4,1.6-0.9,2.6c0.4,0.9,1.7,1.3,2.6,0.9c1-0.5,1.4-1.6,0.9-2.6
		C95,115.2,93.9,114.8,92.9,115.3z"/>
	<path class="st0" d="M83.2,118.9c-1,0.3-1.6,1.3-1.4,2.4c0.3,0.9,1.4,1.6,2.4,1.4C86.6,121.9,85.6,118.3,83.2,118.9z"/>
	<path class="st0" d="M105.1,16.7C105.1,16.7,105.1,16.7,105.1,16.7c-0.8-0.6-2.1-0.5-2.7,0.3c-0.7,0.8-0.5,2.1,0.3,2.7
		c0.9,0.6,1.8,0.5,2.7-0.3C106.1,18.6,105.9,17.4,105.1,16.7z"/>
	<path class="st0" d="M101.8,109.9c-0.9,0.6-1,1.8-0.4,2.7c0.8,0.9,1.7,1,2.7,0.4c0.9-0.6,1-1.8,0.4-2.7
		C103.9,109.4,102.7,109.2,101.8,109.9L101.8,109.9z"/>
	<path class="st0" d="M62.5,120.6L62.5,120.6c-1.1-0.1-2,0.7-2.1,1.7c-0.1,1,0.9,2.1,1.9,2.1c1,0,1.8-0.7,1.9-1.7
		C64.3,121.6,63.5,120.7,62.5,120.6L62.5,120.6z"/>
	<path class="st0" d="M49.6,98.5c-1.4,2,1.7,4.3,3.2,2.2c0.4-0.6,0.9-1.3,1.2-2h0.1c0.5-1.4,1.4-2.5,1.4-4c0,0,0.1,0,0.2,0
		c0.8-2.6,1.2-5.4,1.1-8.2c0,0,0,0,0,0c0.1-1.5,0.2-2.9-0.1-4.3h-0.3c-1.2-6.6-5-12.7-11-15.9V42.3c-0.1-0.2-0.1-0.4-0.2-0.6
		c0-0.1-0.1-0.3-0.2-0.6c-0.1-0.2-0.2-0.4-0.2-0.5c-0.2-0.3-0.4-0.7-0.6-1c0,0,0-0.1,0-0.1c0,0,0,0,0,0c-0.6-0.5-1.1-1-1.7-1.4
		c-0.4-0.3-0.7-0.6-1-1v0.1c-5.2-3.3-12.3,0.6-12.3,6.8v45.2l-3.6,3.6c-0.1,0-0.1-0.1-0.2-0.1c0.1,0.1,0.1,0.1,0.2,0.2
		c1.2,0.7,2.4,1.5,3.3,2.4c0.1,0.1,0.1,0.2,0.2,0.2c0.1,0,0.1,0,0.2,0l-0.5-0.5l3.7-3.8C32.8,91,33,90.5,33,90V44
		c0-5.4,8.4-5.4,8.4,0v23.3c0,0.8,0.5,1.5,1.2,1.8c4.6,2,8,6.1,9.6,11.6C53.9,86.9,52.9,93.7,49.6,98.5z"/>
	<path class="st0" d="M75.2,98.7c-0.1,0-0.6,0-1.3,0c-4,6.5-11,10.5-18.8,10.5v0l-2.7-0.1c-0.5,0-1.1,0.2-1.5,0.6l-3.5,3.5
		c0,0,0,0,0,0c0.1,0.4,0.1,0.7,0.1,1c0.2,0.2,0.3,0.4,0.4,0.5c0.5,0.5,0.8,1,1.1,1.6c0.2,0.1,0.3,0.3,0.4,0.4c0.1,0,0.1,0,0.2-0.1
		c-0.1-0.1-0.1-0.2-0.1-0.3l3.5-3.5c10.4,0.8,20.5-4.9,25.2-14.2C76.9,98.7,75.5,98.7,75.2,98.7z"/>
	<path class="st0" d="M100.8,59.2c3.3-3,3.3-8.3,0-11.3c3.3-3,3.3-8.3,0-11.3c4.7-4.2,2.2-12.3-4.1-13.1c-1.9,0-3.8,0-4.9,0
		c-6.5,0.5-9.5,8.6-4.5,13.2c-3.3,2.9-3.3,8.4,0,11.3c-3.3,2.9-3.3,8.4,0,11.3c-5.2,4.7-1.8,13.2,5.1,13.2c1.7-0.1,3.6-0.2,5.1-0.2
		c3.3-0.8,5.7-3.8,5.7-7.3C103.3,62.6,102.4,60.6,100.8,59.2z M95.8,68.5h-3.4c-4.9-0.2-4.9-7.2,0-7.4h3.4c2,0,3.7,1.7,3.7,3.7
		C99.5,66.9,97.8,68.5,95.8,68.5z M95.8,57.3h-3.4c-4.9-0.2-4.9-7.2,0-7.4h3.4c2,0,3.7,1.7,3.7,3.7C99.5,55.6,97.8,57.3,95.8,57.3z
		 M95.8,46h-3.4c-4.9-0.2-4.9-7.2,0-7.4h3.4c2,0,3.7,1.7,3.7,3.7C99.5,44.4,97.8,46,95.8,46z M95.8,34.8h-3.4
		c-4.9-0.2-4.9-7.2,0-7.4h3.4c2,0,3.7,1.7,3.7,3.7C99.4,33,97.8,34.8,95.8,34.8z"/>
</g>
<g>
	<path class="st0" d="M66.1,48.3L65,48.8c-0.1,0.1-0.3,0.1-0.4,0.1c-0.3,0-0.6-0.1-0.8-0.4c-0.2-0.3-0.3-0.6-0.3-0.9
		c0-0.3,0.1-0.5,0.2-0.7c0.1-0.2,0.4-0.4,0.6-0.5l2.5-1c0.2-0.1,0.4-0.1,0.6-0.1c0.3,0,0.5,0.1,0.7,0.4c0.2,0.2,0.3,0.6,0.3,1.1v11
		c0,0.3-0.1,0.6-0.4,0.8c-0.2,0.2-0.5,0.3-0.8,0.3c-0.3,0-0.6-0.1-0.8-0.3c-0.2-0.2-0.3-0.5-0.3-0.8V48.3z"/>
</g>
<path class="st0" d="M71.9,49.8h-0.4c-0.3,0-0.6-0.3-0.6-0.6v-3.7c0-0.3,0.3-0.6,0.6-0.6h0.4c0.3,0,0.6,0.3,0.6,0.6v3.7
	C72.5,49.6,72.2,49.8,71.9,49.8z"/>
<path class="st0" d="M75.1,49.8h-0.4c-0.3,0-0.6-0.3-0.6-0.6v-3.7c0-0.3,0.3-0.6,0.6-0.6h0.4c0.3,0,0.6,0.3,0.6,0.6v3.7
	C75.7,49.6,75.4,49.8,75.1,49.8z"/>
<path class="st0" d="M72.3,30.6v1.3c0,0.3-0.3,0.6-0.6,0.6h-8.2c-0.3,0-0.6-0.3-0.6-0.6v-1.3c0-0.3,0.3-0.6,0.6-0.6h8.2
	C72.1,30,72.3,30.3,72.3,30.6z"/>
<path class="st0" d="M67,41.7c0.5,0,0.9-0.4,0.9-0.9v-1.3c0-0.5-0.4-0.9-0.9-0.9c-0.5,0-0.9,0.4-0.9,0.9v1.3
	C66.1,41.3,66.5,41.7,67,41.7z"/>
<path class="st0" d="M73.8,37.8c0.6,0.2,1.2,0,1.4-0.6l0.7-1.5c0.2-0.6,0-1.2-0.6-1.4c-0.6-0.2-1.2,0-1.4,0.6l-0.7,1.5
	C73,36.9,73.2,37.5,73.8,37.8z"/>
<path class="st0" d="M67.7,36.3c0.8,0,1.5-0.6,1.5-1.3v-2c0-0.7-0.7-1.3-1.5-1.3c-0.8,0-1.5,0.6-1.5,1.3v2
	C66.2,35.7,66.8,36.3,67.7,36.3z"/>
<path class="st0" d="M66.1,63v1.3c0,0.5,0.4,0.9,0.9,0.9c0.5,0,0.9-0.4,0.9-0.9V63c0-0.5-0.4-0.9-0.9-0.9
	C66.5,62.1,66.1,62.5,66.1,63z"/>
<path class="st0" d="M58.5,59.1L57.6,60c-0.3,0.3-0.3,0.9,0,1.2c0.3,0.3,0.9,0.3,1.2,0l0.9-0.9c0.3-0.3,0.3-0.9,0-1.2
	C59.4,58.8,58.9,58.8,58.5,59.1z"/>
<path class="st0" d="M54.6,51c-0.5,0-0.9,0.4-0.9,0.9c0,0.5,0.4,0.9,0.9,0.9h1.3c0.5,0,0.9-0.4,0.9-0.9c0-0.5-0.4-0.9-0.9-0.9H54.6z
	"/>
<path class="st0" d="M59.7,43.4l-0.9-0.9c-0.3-0.3-0.9-0.3-1.2,0c-0.3,0.3-0.3,0.9,0,1.2l0.9,0.9c0.3,0.3,0.9,0.3,1.2,0
	C60.1,44.3,60.1,43.8,59.7,43.4z"/>
<path class="st0" d="M83.1,51.7c0.5,0,0.8-0.4,0.8-0.9c-0.5-8.9-8-15.9-16.9-15.9c-9.4,0-17,7.6-17,17c0,9.4,7.6,17,17,17
	c8.4,0,15.5-6.1,16.8-14.4c0.1-0.5-0.3-0.9-0.7-1c-0.5-0.1-0.9,0.3-1,0.7c-1.1,7.4-7.5,13-15.1,13c-8.4,0-15.3-6.8-15.3-15.3
	S58.5,36.6,67,36.6c8.1,0,14.7,6.3,15.2,14.3C82.2,51.4,82.6,51.8,83.1,51.7L83.1,51.7z"/>
</svg>
