<?xml version="1.0" encoding="utf-8"?>
<!-- Generator: Adobe Illustrator 22.1.0, SVG Export Plug-In . SVG Version: 6.00 Build 0)  -->
<svg version="1.1" id="Layer_1" xmlns="http://www.w3.org/2000/svg" xmlns:xlink="http://www.w3.org/1999/xlink" x="0px" y="0px"
	 viewBox="0 0 134.6 134" style="enable-background:new 0 0 134.6 134;" xml:space="preserve">
<style type="text/css">
	.st0{fill:#E60028;}
</style>
<g>
	<path class="st0" d="M91.5,72.8c1.2,0,2.2-1,2.2-2.2v-1c0-1.2-1-2.2-2.2-2.2s-2.2,1-2.2,2.2v1C89.3,71.8,90.3,72.8,91.5,72.8z"/>
	<path class="st0" d="M105.7,78.7c0.6,0,1.1-0.2,1.6-0.6l0.7-0.7c0.9-0.9,0.9-2.2,0-3.1c-0.9-0.9-2.2-0.9-3.1,0l-0.7,0.7
		c-0.9,0.9-0.9,2.2,0,3.1C104.6,78.5,105.2,78.7,105.7,78.7z"/>
	<path class="st0" d="M112.6,92.9c1.2,0,2.2-1,2.2-2.2c0-1.2-1-2.2-2.2-2.2h-1c-1.2,0-2.2,1-2.2,2.2c0,1.2,1,2.2,2.2,2.2H112.6z"/>
	<path class="st0" d="M70.4,88.5c-1.2,0-2.2,1-2.2,2.2c0,1.2,1,2.2,2.2,2.2h1c1.2,0,2.2-1,2.2-2.2c0-1.2-1-2.2-2.2-2.2H70.4z"/>
	<path class="st0" d="M104.2,106.5l0.7,0.7c0.4,0.4,1,0.6,1.6,0.6s1.1-0.2,1.6-0.6c0.9-0.9,0.9-2.2,0-3.1l-0.7-0.7
		c-0.9-0.9-2.2-0.9-3.1,0C103.3,104.2,103.3,105.6,104.2,106.5L104.2,106.5z"/>
	<path class="st0" d="M89.3,110.8v1c0,1.2,1,2.2,2.2,2.2s2.2-1,2.2-2.2v-1c0-1.2-1-2.2-2.2-2.2S89.3,109.6,89.3,110.8z"/>
	<path class="st0" d="M75.7,103.4l-0.7,0.7c-0.9,0.9-0.9,2.2,0,3.1c0.4,0.4,1,0.6,1.6,0.6c0.6,0,1.1-0.2,1.6-0.6l0.7-0.7
		c0.9-0.9,0.9-2.2,0-3.1C78,102.5,76.6,102.5,75.7,103.4z"/>
	<path class="st0" d="M78.8,74.9l-0.7-0.7c-0.9-0.9-2.2-0.9-3.1,0c-0.9,0.9-0.9,2.2,0,3.1l0.7,0.7c0.4,0.4,1,0.6,1.6,0.6
		c0.6,0,1.1-0.2,1.6-0.6C79.7,77.2,79.7,75.8,78.8,74.9L78.8,74.9z"/>
	<path class="st0" d="M121.8,66.2c-1,0.7-1.2,2.1-0.5,3.1c4.5,6.3,6.9,13.7,6.9,21.5c0,20.3-16.5,36.8-36.8,36.8
		c-20.3,0-36.8-16.5-36.8-36.8s16.5-36.8,36.8-36.8c8.9,0,17.6,3.2,24.3,9.2c0.9,0.8,2.3,0.7,3.1-0.2c0.8-0.9,0.7-2.3-0.2-3.1
		c-6-5.3-13.4-8.7-21.3-9.8c0.2-7.6-0.6-15.5-2.4-21.8c-0.6-2,0-4.2,1.5-5.7l2.2-2.2c3-3,3.1-7.8,0.3-10.8c-1.4-1.6-3.4-2.4-5.5-2.5
		c-3.7-0.1-5.8,2.5-5.9,2.6c-1.8,1.8-4.5,2.2-6.7,1.1C65.9,3.3,56.4,1.7,34.6,7c-1.2,0.3-1.9,1.5-1.6,2.7c0.3,1.2,1.5,1.9,2.7,1.6
		c9.8-2.4,4.1-1.2,14.4-2.9c12.6,0,21.9,2.7,28.9,6.1c3.9,1.9,8.7,1.1,11.7-1.9c0.2-0.1,1-1.4,2.8-1.3c0.9,0,1.8,0.4,2.4,1.1
		c1.2,1.3,1.1,3.4-0.2,4.7l-2.2,2.2c-2.6,2.6-3.6,6.4-2.6,10c1.6,5.9,2.4,13.1,2.2,20.2c-0.5,0-1,0-1.5,0c-20,0-36.7,14.3-40.4,33.3
		c-17,0.9-16.7-1.7-28-6.7c-3.8-1.7-8.3-0.8-11.3,2.2L11.1,79c-1.3,1.3-3.4,1.3-4.7,0c-1.3-1.3-1.3-3.4,0-4.7l1.8-1.8
		c2.6-2.6,3.6-6.4,2.6-9.9c-2.6-9.5-2.3-23,0.6-32.9c1.1-3.6,0.1-7.5-2.6-10.1L6.3,17c-1.3-1.3-1.3-3.4,0-4.7c1.3-1.3,3.4-1.3,4.7,0
		l1.1,1.1c3,3,7.7,3.9,11.6,2c1.2-0.6,2.4-1.1,3.8-1.6c1.1-0.4,1.7-1.7,1.3-2.8s-1.7-1.7-2.8-1.3c-1.5,0.5-2.8,1.1-4.1,1.7
		c-2.2,1-4.9,0.6-6.6-1.2l-1.1-1.1c-3-3-7.9-3-11,0c-3,3-3,7.9,0,11l2.5,2.5c1.5,1.5,2.1,3.7,1.5,5.8C4,38.9,3.8,53.5,6.5,63.7
		c0.5,2,0,4.2-1.5,5.6l-1.8,1.8c-3,3-3,7.9,0,11c3,3,7.9,3,11,0l0.7-0.7c1.7-1.7,4.3-2.2,6.4-1.2c10.5,4.6,7.5,7.2,23.1,7.2
		c2,0,4.1,0,6.1-0.1c-0.1,1.1-0.1,2.3-0.1,3.5c0,22.7,18.5,41.2,41.2,41.2s41.2-18.5,41.2-41.2c0-8.7-2.7-17-7.8-24.1
		C124.2,65.7,122.8,65.4,121.8,66.2L121.8,66.2z"/>
	<path class="st0" d="M89.3,86l-1.5-1.3c-0.9-0.8-2.3-0.7-3.1,0.3C83.9,86,84,87.3,85,88.1l5.1,4.3c1.4,1.2,3.6,0.2,3.6-1.7V78.5
		c0-1.2-1-2.2-2.2-2.2s-2.2,1-2.2,2.2L89.3,86L89.3,86z"/>
	<path class="st0" d="M108.4,46.4h6.2c1.2,0,2.2-1,2.2-2.2c0-1.2-1-2.2-2.2-2.2h-2l3.5-5.1c0.5-0.7,0.5-1.5,0.1-2.3
		c-0.4-0.7-1.1-1.2-1.9-1.2h-5.8c-1.2,0-2.2,1-2.2,2.2c0,1.2,1,2.2,2.2,2.2h1.6l-3.5,5.1C105.6,44.4,106.6,46.4,108.4,46.4
		L108.4,46.4z"/>
	<path class="st0" d="M122.2,39.6h8.2c1.2,0,2.2-1,2.2-2.2c0-1.2-1-2.2-2.2-2.2h-4l5.5-8c0.5-0.7,0.5-1.5,0.1-2.3
		c-0.4-0.7-1.1-1.2-1.9-1.2h-7.7c-1.2,0-2.2,1-2.2,2.2c0,1.2,1,2.2,2.2,2.2h3.5l-5.5,8C119.4,37.6,120.5,39.6,122.2,39.6z"/>
	<path class="st0" d="M80.4,117.7c-0.4,1.2,0.3,2.4,1.4,2.8c3.1,1,6.4,1.5,9.7,1.5c17.2,0,31.3-14,31.3-31.3s-14-31.3-31.3-31.3
		s-31.3,14-31.3,31.3c0,10.1,4.9,19.6,13.1,25.5c1,0.7,2.4,0.5,3.1-0.5c0.7-1,0.5-2.4-0.5-3.1c-7.1-5-11.3-13.2-11.3-21.9
		c0-14.8,12.1-26.9,26.9-26.9c14.8,0,26.9,12.1,26.9,26.9s-12.1,26.9-26.9,26.9c-2.8,0-5.6-0.4-8.3-1.3
		C82,115.9,80.8,116.5,80.4,117.7z"/>
</g>
</svg>
