<?xml version="1.0" encoding="utf-8"?>
<!-- Generator: Adobe Illustrator 22.1.0, SVG Export Plug-In . SVG Version: 6.00 Build 0)  -->
<svg version="1.1" id="Layer_1" xmlns="http://www.w3.org/2000/svg" xmlns:xlink="http://www.w3.org/1999/xlink" x="0px" y="0px"
	 viewBox="0 0 134.6 134" style="enable-background:new 0 0 134.6 134;" xml:space="preserve">
<style type="text/css">
	.st0{fill:#D1D1D1;}
	.st1{fill:#807D7D;}
</style>
<g>
	<path class="st0" d="M-145.8,31.7c-1.1,0.1-1.9,1-1.9,2c0.1,1,1,1.8,2.1,1.8c1.1-0.1,1.9-1,1.9-2
		C-143.8,32.4-144.7,31.6-145.8,31.7L-145.8,31.7z"/>
	<path class="st0" d="M-194.3,93.5c-1,0.5-1.4,1.6-0.9,2.5c0.5,0.9,1.7,1.3,2.7,0.9c1-0.5,1.4-1.6,0.9-2.5
		C-192.1,93.5-193.3,93.1-194.3,93.5z"/>
	<path class="st0" d="M-148.9,26.1c0.2,0.9,1,1.4,1.9,1.4c1.2,0,2.2-1.3,1.9-2.4c-0.3-1-1.4-1.6-2.4-1.4
		C-148.6,24-149.2,25.1-148.9,26.1z"/>
	<path class="st0" d="M-154.8,13.3c1.6,0,2.6-2,1.5-3.2c-1.8-1.8-4.7,0.6-3,2.5C-155.9,13.1-155.4,13.3-154.8,13.3L-154.8,13.3z"/>
	<path class="st0" d="M-180.3,88.1c0.9,0.9,1.8,1,2.8,0.5c0.9-0.6,1.1-1.8,0.5-2.6c-0.6-0.9-1.9-1.1-2.8-0.5h0
		C-180.8,86.1-181,87.3-180.3,88.1L-180.3,88.1z"/>
	<path class="st0" d="M-186.9,89.8c-1,0.5-1.3,1.7-0.7,2.6c0.5,0.9,1.8,1.2,2.7,0.7c1-0.5,1.3-1.7,0.7-2.6
		C-184.7,89.5-185.9,89.2-186.9,89.8L-186.9,89.8z"/>
	<path class="st0" d="M-167,75.4c-0.8,0.7-0.8,1.9,0,2.7c0.9,0.7,1.9,0.7,2.8,0c0.8-0.7,0.8-1.9,0-2.7
		C-165,74.6-166.3,74.6-167,75.4L-167,75.4z"/>
	<path class="st0" d="M-173.2,80.7c-0.8,0.7-1,1.9-0.3,2.7c0.9,0.8,1.8,0.9,2.8,0.2c0.8-0.7,1-1.9,0.3-2.7
		C-171.1,80.1-172.4,80-173.2,80.7z"/>
	<path class="st0" d="M-225,3c1,0,2-1,2-2c-0.2-2.5-4-2.3-4,0.2C-226.9,2.2-226,3-225,3L-225,3z"/>
	<path class="st0" d="M-150,20c1.4,0,2.4-1.6,1.8-2.8c-0.5-0.9-1.7-1.3-2.7-0.8c-1,0.5-1.4,1.6-0.9,2.5C-151.5,19.6-150.8,20-150,20
		L-150,20z"/>
	<path class="st0" d="M-169.6,4.4c1,0.3,2.2-0.3,2.5-1.2c0.3-1-0.2-2.1-1.3-2.4c-1-0.3-2.2,0.2-2.5,1.2
		C-171.2,3-170.6,4.1-169.6,4.4z"/>
	<path class="st0" d="M-162.4,7.7c0.9,0.5,2.1,0.5,2.8-0.5c0.6-0.9,0.3-2-0.6-2.6c-0.9-0.6-2.2-0.3-2.8,0.5
		C-163.5,6-163.3,7.1-162.4,7.7z"/>
	<path class="st0" d="M-177.4,3c1.1,0.1,2.1-0.7,2.1-1.8c0.1-1-0.8-1.9-1.9-2c-1.1-0.1-2,0.7-2.1,1.8C-179.3,2.1-178.5,3-177.4,3z"
		/>
	<path class="st0" d="M-209.2,5.9c0.9,0.4,2.2,0,2.7-0.9c0.5-0.9,0-2.1-1-2.5c-1-0.4-2.2,0-2.7,0.9C-210.7,4.3-210.2,5.5-209.2,5.9z
		"/>
	<path class="st0" d="M-216.9,3.5c1,0.2,2.2-0.6,2.3-1.5c0.2-1-0.5-2-1.6-2.2c-1.1-0.2-2.1,0.5-2.4,1.5
		C-218.7,2.3-217.9,3.3-216.9,3.5L-216.9,3.5z"/>
	<path class="st0" d="M-185.8,3.5c1.1,0,2.2-1.2,2-2.2c-0.2-1-1.3-1.7-2.3-1.5c-1.1,0.2-1.8,1.2-1.6,2.2
		C-187.6,2.9-186.7,3.5-185.8,3.5L-185.8,3.5z"/>
	<path class="st0" d="M-201.2,10.2c1.5,0,2.5-1.9,1.6-3.1c-0.7-0.8-1.9-1-2.8-0.3c-0.9,0.6-1,1.8-0.3,2.7
		C-202.3,9.9-201.7,10.2-201.2,10.2L-201.2,10.2z"/>
	<path class="st0" d="M-193.9,6c0.6-0.4,0.8-0.4,0.8-0.2c1-0.4,1.5-1.6,1-2.5c-0.5-1-1.6-1.4-2.6-0.9C-196.7,3.2-195.9,6-193.9,6z"
		/>
	<path class="st0" d="M-233.3,4.4c1.2,0,2.3-1.3,1.9-2.5c-0.3-1-1.5-1.5-2.5-1.2c-1.1,0.3-1.6,1.4-1.3,2.4
		C-235,3.9-234.2,4.4-233.3,4.4z"/>
	<path class="st0" d="M-256.4,43.2c1.1-0.1,1.9-1.1,1.7-2.1c-0.1-1-1.1-1.8-2.2-1.6c-1.1,0.1-1.9,1.1-1.7,2.1c0,0,0,0,0,0
		C-258.5,42.6-257.4,43.3-256.4,43.2L-256.4,43.2z"/>
	<path class="st0" d="M-253.3,19.5c1,0.5,2.1,0.1,2.7-0.8c0.5-0.9,0.1-2.1-0.8-2.6c-1-0.5-2.2-0.1-2.7,0.8
		C-254.6,17.8-254.3,19-253.3,19.5z"/>
	<path class="st0" d="M-257,35.2c1,0.1,2.1-0.8,2.1-1.8c0.1-1-0.8-1.9-1.9-2C-259.4,31.3-259.6,34.9-257,35.2z"/>
	<path class="st0" d="M-249.9,56c-0.5-1-1.6-1.4-2.6-0.9c-1,0.4-1.4,1.6-1,2.5c0.3,0.7,1.1,1.1,1.8,1.1
		C-250.4,58.6-249.4,57.1-249.9,56z"/>
	<path class="st0" d="M-256,27.1c1,0.3,2.2-0.4,2.5-1.3c0.3-1-0.3-2-1.4-2.3c-1.1-0.3-2.2,0.3-2.5,1.3
		C-257.7,25.8-257.1,26.9-256,27.1z"/>
	<path class="st0" d="M-252.9,48.7L-252.9,48.7c-0.3-1-1.4-1.6-2.5-1.3c-1.1,0.3-1.7,1.4-1.3,2.4c0.3,0.8,1.1,1.3,1.9,1.3
		C-253.6,51.1-252.5,49.8-252.9,48.7z"/>
	<path class="st0" d="M-147.3,47.7c-1.1-0.3-2.2,0.2-2.5,1.2c-0.3,1,0.3,2.1,1.3,2.4c1,0.3,2.2-0.3,2.5-1.3
		C-145.6,49-146.2,48-147.3,47.7z"/>
	<path class="st0" d="M-145.7,39.7c-1.1-0.1-2.1,0.6-2.2,1.6c-0.1,1,0.6,2,1.7,2.1c1,0.1,2.1-0.7,2.2-1.6
		C-143.9,40.8-144.6,39.9-145.7,39.7z"/>
	<path class="st0" d="M-158.7,69.2c-0.9-0.7-2.1-0.5-2.8,0.3c-0.7,0.8-0.6,2,0.3,2.7c1,0.6,1.9,0.5,2.8-0.3
		C-157.7,71.1-157.8,69.9-158.7,69.2z"/>
	<path class="st0" d="M-203.3,97.2c0,1,0.9,1.9,2,1.9c2.6-0.1,2.6-3.7,0-3.8C-202.4,95.3-203.3,96.2-203.3,97.2z"/>
	<path class="st0" d="M-150.1,55.3c-1-0.4-2.2,0-2.7,0.9c-0.5,0.9,0,2.1,1,2.5c0.9,0.4,2.2,0,2.7-0.9
		C-148.7,56.9-149.1,55.7-150.1,55.3z"/>
	<path class="st0" d="M-153.9,62.5c-0.9-0.6-2.2-0.3-2.8,0.6h0c-0.6,0.9-0.3,2.1,0.6,2.6c0.9,0.5,2.2,0.2,2.8-0.6
		C-152.7,64.2-153,63.1-153.9,62.5z"/>
	<path class="st0" d="M-218.6,90.3c-0.6,0.9-0.2,2.1,0.7,2.6c0.9,0.5,2.2,0.2,2.7-0.7c0.6-0.9,0.2-2.1-0.7-2.6
		C-216.9,89.1-218.1,89.4-218.6,90.3L-218.6,90.3z"/>
	<path class="st0" d="M-225.7,85.8c-0.6,0.9-0.4,2,0.5,2.6c1,0.6,1.9,0.4,2.8-0.5c0.6-0.9,0.4-2-0.5-2.6
		C-223.8,84.7-225.1,84.9-225.7,85.8z"/>
	<path class="st0" d="M-211.2,94.3c-0.5,0.9-0.1,2.1,0.9,2.5c0.9,0.4,2.2,0,2.7-0.8c0.5-0.9,0.1-2.1-0.9-2.5
		C-209.5,92.9-210.7,93.3-211.2,94.3z"/>
	<path class="st0" d="M-232.4,80.7c-0.7,0.8-0.6,2,0.2,2.7c1,0.7,1.9,0.6,2.8-0.2c0.7-0.8,0.6-2-0.2-2.7
		C-230.4,79.8-231.7,79.9-232.4,80.7z"/>
	<path class="st0" d="M-244,69c-0.9,0.7-1,1.8-0.3,2.7c0.9,0.8,1.8,0.9,2.8,0.3c0.9-0.7,1-1.8,0.3-2.7
		C-241.9,68.5-243.2,68.3-244,69z"/>
	<path class="st0" d="M-247.7,65.8c1.4,0,2.5-1.7,1.7-2.9c-0.6-0.9-1.8-1.2-2.8-0.6c-0.9,0.6-1.2,1.7-0.6,2.6
		C-249,65.4-248.4,65.8-247.7,65.8z"/>
	<path class="st0" d="M-237.1,78.4c0.5,0,1-0.2,1.4-0.5c0.8-0.7,0.8-1.9,0-2.7c-0.8-0.7-2-0.8-2.8,0
		C-239.8,76.3-238.9,78.4-237.1,78.4L-237.1,78.4z"/>
	<path class="st0" d="M-241,7.9c1.5,0,2.5-1.7,1.7-2.9c-0.6-0.9-1.8-1.1-2.8-0.6c-0.9,0.6-1.2,1.7-0.6,2.6
		C-242.3,7.6-241.7,7.9-241,7.9z"/>
	<path class="st0" d="M-248.8,12.6c1,0.7,1.9,0.6,2.8-0.1c0.7-0.8,0.7-2-0.1-2.7c-0.8-0.7-2.1-0.6-2.8,0.1
		C-249.7,10.7-249.7,11.9-248.8,12.6z"/>
	<path class="st1" d="M-239.4,16.5c-0.8-0.7-2.1-0.6-2.8,0.2c-14.1,16.2-4.7,40.3,10.5,54.4c7.1,6.8,16,12.8,26.5,17.7
		c2.5,1.2,5.2,1.2,7.8,0c10.5-4.9,19.4-10.8,26.5-17.7c16.4-15.3,27.1-43.7,5-59c-5.9-3.6-13.1-4.6-20.2-2.8
		c-6.2,1.5-11.6,5-15.2,9.7c-6.9-8.9-19.8-12.9-30.8-9c-2.4,0.9-1,4.4,1.4,3.6c10.2-3.6,22.3,0.8,27.6,9.9c0.7,1.3,2.8,1.3,3.5,0
		c3-5.1,8.3-8.9,14.5-10.4c6-1.5,12.1-0.6,17,2.4c7,4.2,13,14.7,9.7,27.8c-2.3,9.2-7.5,17.7-15.4,25.3c-1.3,1.3-2.7,2.5-4.1,3.7
		c-2.5-2.8-5.5-5.2-8.9-7c3.9-4.3,4.9-9.3,4.6-14.8c-0.3-10.1-8.9-18-19.3-17.7c-4.8,0.1-9.4,1.8-12.9,4.8c-3.8,3.4-6,8-6.1,13.4
		c-0.2,5.3,0.8,10.2,4.6,14.3c-3.4,1.8-6.4,4.1-8.9,7c-1.4-1.2-2.8-2.4-4.1-3.7c-13.7-12.8-22.9-34.5-10.3-49.3
		C-238.4,18.4-238.5,17.2-239.4,16.5L-239.4,16.5z M-201.4,36.4c7.3-0.1,14.8,4.7,15.3,14.1c-5.2,0.3-10.4-0.9-13.5-5.2
		c-0.8-1.1-2.5-1-3.3,0c-2.9,4-8.4,6.1-13.5,5.2C-215.9,41.4-208.6,36.5-201.4,36.4L-201.4,36.4z M-216.1,54.5
		c5.4,0.6,11-1.3,14.8-5c3.9,3.8,9.7,5.8,15.2,5c-0.3,3.2-1.7,6.3-4.1,8.8c-6.1,6.3-16.2,6.3-22.2,0c-2.4-2.5-3.8-5.6-4.1-8.8
		C-216.3,54.4-216.2,54.4-216.1,54.5L-216.1,54.5z M-221.6,74.6c2.4-2.8,5.4-5,8.8-6.6c6.8,5,16.3,5,23.1,0c3.4,1.6,6.4,3.8,8.8,6.6
		c-5.3,4-11.3,7.6-18,10.7c-1.7,0.8-3.1,0.8-4.8,0C-210.3,82.2-216.4,78.6-221.6,74.6L-221.6,74.6z"/>
	<path class="st0" d="M-164.5,103.6c-2.6-2.4-6.8-3.1-9.8,0.2c-3.7,3.8-8.6,6.7-14,8.5c0.9-4.8-3.1-9.4-8.1-8.5
		c-4.8,0.8-11.4,1-15.9-3c-4.4-3.9-11.3-3.2-15.1,1.1h-5.4c-2.5-10.1-17.1-8.6-17.4,1.9v17.5c0.3,10.6,15,12,17.4,1.8h6.2
		c14.6,6.2,32.8,7.1,47.2,1c2.4-1,0.8-4.7-1.6-3.7c-6.6,2.8-14.3,4.1-22.3,3.8c-7.6-0.3-15.3-2-22.2-4.9c-0.2-0.1-0.5-0.2-0.8-0.2
		h-6.5v-13.3h6.2c0.6,0,1.2-0.3,1.6-0.8c2.3-3.1,6.9-4,9.9-1.3c4.5,4,11.2,5.4,19.3,3.9c4.6-0.8,4.7,5.6,0.8,6.1
		c-5.1,0.7-10.4,0.7-15.6-0.4c-1.1-0.2-2.1,0.5-2.4,1.5c-0.2,1.1,0.5,2.1,1.5,2.4c6.8,1.5,14.3,1.3,21.2-0.4
		c7.5-1.9,13.9-5.5,18.7-10.4c1.9-2,4-0.2,4.2,0c0.2,0.2,2.2,2.2,0.3,4.2c-1.5,1.6-3.1,3.1-4.8,4.4c-2.1,1.6,0.4,4.7,2.4,3.2
		c1.9-1.5,3.7-3.1,5.3-4.8C-161,110.1-161.9,106-164.5,103.6L-164.5,103.6z M-236.7,121.3c0,2.6-2.1,4.8-4.8,4.8s-4.8-2.1-4.8-4.8
		v-17.5c0.3-6.3,9.3-6.3,9.6,0L-236.7,121.3L-236.7,121.3z"/>
</g>
<g>
	<path class="st1" d="M91.5,72.8c1.2,0,2.2-1,2.2-2.2v-1c0-1.2-1-2.2-2.2-2.2s-2.2,1-2.2,2.2v1C89.3,71.8,90.3,72.8,91.5,72.8z"/>
	<path class="st1" d="M105.7,78.7c0.6,0,1.1-0.2,1.6-0.6l0.7-0.7c0.9-0.9,0.9-2.2,0-3.1c-0.9-0.9-2.2-0.9-3.1,0l-0.7,0.7
		c-0.9,0.9-0.9,2.2,0,3.1C104.6,78.5,105.2,78.7,105.7,78.7z"/>
	<path class="st1" d="M112.6,92.9c1.2,0,2.2-1,2.2-2.2c0-1.2-1-2.2-2.2-2.2h-1c-1.2,0-2.2,1-2.2,2.2c0,1.2,1,2.2,2.2,2.2H112.6z"/>
	<path class="st1" d="M70.4,88.5c-1.2,0-2.2,1-2.2,2.2c0,1.2,1,2.2,2.2,2.2h1c1.2,0,2.2-1,2.2-2.2c0-1.2-1-2.2-2.2-2.2H70.4z"/>
	<path class="st1" d="M104.2,106.5l0.7,0.7c0.4,0.4,1,0.6,1.6,0.6s1.1-0.2,1.6-0.6c0.9-0.9,0.9-2.2,0-3.1l-0.7-0.7
		c-0.9-0.9-2.2-0.9-3.1,0C103.3,104.2,103.3,105.6,104.2,106.5L104.2,106.5z"/>
	<path class="st1" d="M89.3,110.8v1c0,1.2,1,2.2,2.2,2.2s2.2-1,2.2-2.2v-1c0-1.2-1-2.2-2.2-2.2S89.3,109.6,89.3,110.8z"/>
	<path class="st1" d="M75.7,103.4l-0.7,0.7c-0.9,0.9-0.9,2.2,0,3.1c0.4,0.4,1,0.6,1.6,0.6c0.6,0,1.1-0.2,1.6-0.6l0.7-0.7
		c0.9-0.9,0.9-2.2,0-3.1C78,102.5,76.6,102.5,75.7,103.4z"/>
	<path class="st1" d="M78.8,74.9l-0.7-0.7c-0.9-0.9-2.2-0.9-3.1,0c-0.9,0.9-0.9,2.2,0,3.1l0.7,0.7c0.4,0.4,1,0.6,1.6,0.6
		c0.6,0,1.1-0.2,1.6-0.6C79.7,77.2,79.7,75.8,78.8,74.9L78.8,74.9z"/>
	<path class="st0" d="M121.8,66.2c-1,0.7-1.2,2.1-0.5,3.1c4.5,6.3,6.9,13.7,6.9,21.5c0,20.3-16.5,36.8-36.8,36.8
		c-20.3,0-36.8-16.5-36.8-36.8s16.5-36.8,36.8-36.8c8.9,0,17.6,3.2,24.3,9.2c0.9,0.8,2.3,0.7,3.1-0.2c0.8-0.9,0.7-2.3-0.2-3.1
		c-6-5.3-13.4-8.7-21.3-9.8c0.2-7.6-0.6-15.5-2.4-21.8c-0.6-2,0-4.2,1.5-5.7l2.2-2.2c3-3,3.1-7.8,0.3-10.8c-1.4-1.6-3.4-2.4-5.5-2.5
		c-3.7-0.1-5.8,2.5-5.9,2.6c-1.8,1.8-4.5,2.2-6.7,1.1C65.9,3.3,56.4,1.7,34.6,7c-1.2,0.3-1.9,1.5-1.6,2.7c0.3,1.2,1.5,1.9,2.7,1.6
		c9.8-2.4,4.1-1.2,14.4-2.9c12.6,0,21.9,2.7,28.9,6.1c3.9,1.9,8.7,1.1,11.7-1.9c0.2-0.1,1-1.4,2.8-1.3c0.9,0,1.8,0.4,2.4,1.1
		c1.2,1.3,1.1,3.4-0.2,4.7l-2.2,2.2c-2.6,2.6-3.6,6.4-2.6,10c1.6,5.9,2.4,13.1,2.2,20.2c-0.5,0-1,0-1.5,0c-20,0-36.7,14.3-40.4,33.3
		c-17,0.9-16.7-1.7-28-6.7c-3.8-1.7-8.3-0.8-11.3,2.2L11.1,79c-1.3,1.3-3.4,1.3-4.7,0c-1.3-1.3-1.3-3.4,0-4.7l1.8-1.8
		c2.6-2.6,3.6-6.4,2.6-9.9c-2.6-9.5-2.3-23,0.6-32.9c1.1-3.6,0.1-7.5-2.6-10.1L6.3,17c-1.3-1.3-1.3-3.4,0-4.7c1.3-1.3,3.4-1.3,4.7,0
		l1.1,1.1c3,3,7.7,3.9,11.6,2c1.2-0.6,2.4-1.1,3.8-1.6c1.1-0.4,1.7-1.7,1.3-2.8s-1.7-1.7-2.8-1.3c-1.5,0.5-2.8,1.1-4.1,1.7
		c-2.2,1-4.9,0.6-6.6-1.2l-1.1-1.1c-3-3-7.9-3-11,0c-3,3-3,7.9,0,11l2.5,2.5c1.5,1.5,2.1,3.7,1.5,5.8C4,38.9,3.8,53.5,6.5,63.7
		c0.5,2,0,4.2-1.5,5.6l-1.8,1.8c-3,3-3,7.9,0,11c3,3,7.9,3,11,0l0.7-0.7c1.7-1.7,4.3-2.2,6.4-1.2c10.5,4.6,7.5,7.2,23.1,7.2
		c2,0,4.1,0,6.1-0.1c-0.1,1.1-0.1,2.3-0.1,3.5c0,22.7,18.5,41.2,41.2,41.2s41.2-18.5,41.2-41.2c0-8.7-2.7-17-7.8-24.1
		C124.2,65.7,122.8,65.4,121.8,66.2L121.8,66.2z"/>
	<path class="st1" d="M89.3,86l-1.5-1.3c-0.9-0.8-2.3-0.7-3.1,0.3C83.9,86,84,87.3,85,88.1l5.1,4.3c1.4,1.2,3.6,0.2,3.6-1.7V78.5
		c0-1.2-1-2.2-2.2-2.2s-2.2,1-2.2,2.2L89.3,86L89.3,86z"/>
	<path class="st1" d="M108.4,46.4h6.2c1.2,0,2.2-1,2.2-2.2c0-1.2-1-2.2-2.2-2.2h-2l3.5-5.1c0.5-0.7,0.5-1.5,0.1-2.3
		c-0.4-0.7-1.1-1.2-1.9-1.2h-5.8c-1.2,0-2.2,1-2.2,2.2c0,1.2,1,2.2,2.2,2.2h1.6l-3.5,5.1C105.6,44.4,106.6,46.4,108.4,46.4
		L108.4,46.4z"/>
	<path class="st1" d="M122.2,39.6h8.2c1.2,0,2.2-1,2.2-2.2c0-1.2-1-2.2-2.2-2.2h-4l5.5-8c0.5-0.7,0.5-1.5,0.1-2.3
		c-0.4-0.7-1.1-1.2-1.9-1.2h-7.7c-1.2,0-2.2,1-2.2,2.2c0,1.2,1,2.2,2.2,2.2h3.5l-5.5,8C119.4,37.6,120.5,39.6,122.2,39.6z"/>
	<path class="st1" d="M80.4,117.7c-0.4,1.2,0.3,2.4,1.4,2.8c3.1,1,6.4,1.5,9.7,1.5c17.2,0,31.3-14,31.3-31.3s-14-31.3-31.3-31.3
		s-31.3,14-31.3,31.3c0,10.1,4.9,19.6,13.1,25.5c1,0.7,2.4,0.5,3.1-0.5c0.7-1,0.5-2.4-0.5-3.1c-7.1-5-11.3-13.2-11.3-21.9
		c0-14.8,12.1-26.9,26.9-26.9c14.8,0,26.9,12.1,26.9,26.9s-12.1,26.9-26.9,26.9c-2.8,0-5.6-0.4-8.3-1.3
		C82,115.9,80.8,116.5,80.4,117.7z"/>
</g>
</svg>
