<?xml version="1.0" encoding="utf-8"?>
<!-- Generator: Adobe Illustrator 22.1.0, SVG Export Plug-In . SVG Version: 6.00 Build 0)  -->
<svg version="1.1" id="Layer_1" xmlns="http://www.w3.org/2000/svg" xmlns:xlink="http://www.w3.org/1999/xlink" x="0px" y="0px"
	 viewBox="0 0 134.6 134" style="enable-background:new 0 0 134.6 134;" xml:space="preserve">
<style type="text/css">
	.st0{fill:#D1D1D1;}
	.st1{fill:#807D7D;}
</style>
<g>
	<path class="st0" d="M126.5,0.8H23.7c-3.9,0-7.1,3.2-7.1,7.1v20.4H8.4c-3.9,0-7.1,3.2-7.1,7.1v3.9c0,2.5,3.9,2.5,3.9,0v-3.9
		c0-1.8,1.4-3.2,3.2-3.2h8.3c0.1,3.8,3.3,6.9,7.1,6.9h69.5l9.6,9.5c1.2,1.2,3.3,0.3,3.3-1.4v-8.2h8.2v20.4c0,1.8-1.4,3.2-3.2,3.2
		H40.8c-0.5,0-1,0.2-1.4,0.6l-6.8,6.8v-5.4c0-1.1-0.9-1.9-1.9-1.9H8.4c-1.8,0-3.2-1.4-3.2-3.2V50c0-2.5-3.9-2.5-3.9,0v9.5
		c0,3.9,3.2,7.1,7.1,7.1h20.3v8.2c0,1.7,2.1,2.6,3.3,1.4l9.6-9.5h69.5c3.9,0,7.1-3.2,7.1-7.1V39.1h8.3c3.9,0,7.1-3.2,7.1-7.1V7.9
		C133.6,4,130.4,0.8,126.5,0.8L126.5,0.8z M129.7,32c0,1.8-1.4,3.2-3.2,3.2h-22.3c-1.1,0-1.9,0.9-1.9,1.9v5.4l-6.8-6.8
		c-0.4-0.4-0.9-0.6-1.4-0.6H23.7c-1.8,0-3.2-1.4-3.2-3.2V7.9c0-1.8,1.4-3.2,3.2-3.2h102.7c1.8,0,3.2,1.4,3.2,3.2V32z"/>
	<path class="st1" d="M126.5,84.7h-4c-1.1,0-1.9,0.9-1.9,1.9s0.9,1.9,1.9,1.9h4c1.8,0,3.2,1.4,3.2,3.2v24.1c0,1.8-1.4,3.2-3.2,3.2
		h-46c-0.7,0-1.4,0.4-1.7,1.1l-3.3,6.7l-3.3-6.7c-0.3-0.7-1-1.1-1.7-1.1H23.7c-1.8,0-3.2-1.4-3.2-3.2V91.8c0-1.8,1.4-3.2,3.2-3.2
		h88.4c1.1,0,1.9-0.9,1.9-1.9s-0.9-1.9-1.9-1.9H23.7c-3.9,0-7.1,3.2-7.1,7.1v24.1c0,3.9,3.2,7.1,7.1,7.1h45.4l4.5,9
		c0.7,1.4,2.8,1.4,3.5,0l4.5-9h44.8c3.9,0,7.1-3.2,7.1-7.1V91.8C133.6,87.9,130.4,84.7,126.5,84.7L126.5,84.7z"/>
	<path class="st0" d="M41.9,104.8c0,3.3,2.7,6.1,6.1,6.1c8-0.3,8-11.8,0-12.1C44.6,98.7,41.9,101.4,41.9,104.8z M50.2,104.8
		c0,1.2-1,2.2-2.2,2.2c-2.9-0.1-2.9-4.3,0-4.4C49.2,102.6,50.2,103.6,50.2,104.8z"/>
	<path class="st0" d="M60,104.8c0,3.3,2.7,6.1,6.1,6.1c8-0.3,8-11.8,0-12.1C62.7,98.7,60,101.4,60,104.8z M68.2,104.8
		c0,1.2-1,2.2-2.2,2.2c-2.9-0.1-2.9-4.3,0-4.4C67.3,102.6,68.2,103.6,68.2,104.8z"/>
	<path class="st0" d="M78.1,104.8c0,3.3,2.7,6.1,6.1,6.1c8-0.3,8-11.8,0-12.1C80.8,98.7,78.1,101.4,78.1,104.8z M86.3,104.8
		c0,1.2-1,2.2-2.2,2.2c-2.9-0.1-2.9-4.3,0-4.4C85.3,102.6,86.3,103.6,86.3,104.8z"/>
	<path class="st0" d="M96.2,104.8c0,3.3,2.7,6.1,6.1,6.1c8-0.3,8-11.8,0-12.1C98.9,98.7,96.2,101.4,96.2,104.8z M104.4,104.8
		c0,1.2-1,2.2-2.2,2.2c-2.9-0.1-2.9-4.3,0-4.4C103.4,102.6,104.4,103.6,104.4,104.8z"/>
	<path class="st1" d="M117.8,12.7H57.2c-2.6,0.1-2.6,3.8,0,3.9h60.7C120.4,16.5,120.4,12.8,117.8,12.7z"/>
	<path class="st1" d="M90.9,22.4H57.2c-2.6,0.1-2.6,3.8,0,3.9h33.8C93.5,26.2,93.5,22.5,90.9,22.4z"/>
	<path class="st1" d="M47.2,15.7L42.5,15l-2.1-4.3c-0.7-1.4-2.8-1.4-3.5,0L34.7,15l-4.8,0.7c-1.6,0.2-2.2,2.2-1.1,3.3l3.5,3.4
		l-0.8,4.8c-0.3,1.6,1.4,2.8,2.8,2l4.3-2.2l4.3,2.2c1.4,0.7,3.1-0.5,2.8-2l-0.8-4.8l3.5-3.4C49.4,17.9,48.8,15.9,47.2,15.7
		L47.2,15.7z M41.4,20.3c-0.8,0.8-0.6,2.7-0.2,3.6c-1.6-1.3-3.6-1.3-5.2,0c0.6-1.9,0-3.8-1.6-5c2,0,3.6-1.1,4.2-3.1
		c0.6,1.9,2.2,3.1,4.2,3.1L41.4,20.3z"/>
</g>
</svg>
