<?xml version="1.0" encoding="utf-8"?>
<!-- Generator: Adobe Illustrator 22.1.0, SVG Export Plug-In . SVG Version: 6.00 Build 0)  -->
<svg version="1.1" id="Layer_1" xmlns="http://www.w3.org/2000/svg" xmlns:xlink="http://www.w3.org/1999/xlink" x="0px" y="0px"
	 viewBox="0 0 134.6 134" style="enable-background:new 0 0 134.6 134;" xml:space="preserve">
<style type="text/css">
	.st0{fill:#D1D1D1;}
	.st1{fill:#807D7D;}
</style>
<g>
	<path class="st0" d="M122.8,34.1c-1.1,0.1-1.9,1-1.9,2c0.1,1,1,1.8,2.1,1.8c1.1-0.1,1.9-1,1.9-2C124.9,34.8,123.9,34,122.8,34.1
		L122.8,34.1z"/>
	<path class="st0" d="M74.4,95.9c-1,0.5-1.4,1.6-0.9,2.5c0.5,0.9,1.7,1.3,2.7,0.9c1-0.5,1.4-1.6,0.9-2.5
		C76.5,95.9,75.3,95.5,74.4,95.9z"/>
	<path class="st0" d="M119.7,28.5c0.2,0.9,1,1.4,1.9,1.4c1.2,0,2.2-1.3,1.9-2.4c-0.3-1-1.4-1.6-2.4-1.4
		C120,26.4,119.4,27.5,119.7,28.5z"/>
	<path class="st0" d="M113.8,15.7c1.6,0,2.6-2,1.5-3.2c-1.8-1.8-4.7,0.6-3,2.5C112.7,15.5,113.2,15.7,113.8,15.7L113.8,15.7z"/>
	<path class="st0" d="M88.3,90.5c0.9,0.9,1.8,1,2.8,0.5c0.9-0.6,1.1-1.8,0.5-2.6c-0.6-0.9-1.9-1.1-2.8-0.5h0
		C87.9,88.5,87.7,89.7,88.3,90.5L88.3,90.5z"/>
	<path class="st0" d="M81.7,92.2c-1,0.5-1.3,1.7-0.7,2.6c0.5,0.9,1.8,1.2,2.7,0.7c1-0.5,1.3-1.7,0.7-2.6
		C83.9,91.9,82.7,91.6,81.7,92.2L81.7,92.2z"/>
	<path class="st0" d="M101.6,77.8c-0.8,0.7-0.8,1.9,0,2.7c0.9,0.7,1.9,0.7,2.8,0c0.8-0.7,0.8-1.9,0-2.7
		C103.6,77,102.4,77,101.6,77.8L101.6,77.8z"/>
	<path class="st0" d="M95.4,83.1c-0.8,0.7-1,1.9-0.3,2.7c0.9,0.8,1.8,0.9,2.8,0.2c0.8-0.7,1-1.9,0.3-2.7
		C97.5,82.5,96.3,82.4,95.4,83.1z"/>
	<path class="st0" d="M43.7,5.4c1,0,2-1,2-2c-0.2-2.5-4-2.3-4,0.2C41.7,4.6,42.6,5.4,43.7,5.4L43.7,5.4z"/>
	<path class="st0" d="M118.6,22.3c1.4,0,2.4-1.6,1.8-2.8c-0.5-0.9-1.7-1.3-2.7-0.8c-1,0.5-1.4,1.6-0.9,2.5
		C117.2,22,117.9,22.3,118.6,22.3L118.6,22.3z"/>
	<path class="st0" d="M99.1,6.8c1,0.3,2.2-0.3,2.5-1.2c0.3-1-0.2-2.1-1.3-2.4c-1-0.3-2.2,0.2-2.5,1.2C97.5,5.4,98,6.5,99.1,6.8z"/>
	<path class="st0" d="M106.3,10.1c0.9,0.5,2.1,0.5,2.8-0.5c0.6-0.9,0.3-2-0.6-2.6c-0.9-0.6-2.2-0.3-2.8,0.5
		C105.1,8.4,105.3,9.5,106.3,10.1z"/>
	<path class="st0" d="M91.2,5.4c1.1,0.1,2.1-0.7,2.1-1.8c0.1-1-0.8-1.9-1.9-2c-1.1-0.1-2,0.7-2.1,1.8C89.3,4.5,90.1,5.4,91.2,5.4z"
		/>
	<path class="st0" d="M59.4,8.3c0.9,0.4,2.2,0,2.7-0.9c0.5-0.9,0-2.1-1-2.5c-1-0.4-2.2,0-2.7,0.9C58,6.7,58.4,7.9,59.4,8.3z"/>
	<path class="st0" d="M51.8,5.9c1,0.2,2.2-0.6,2.3-1.5c0.2-1-0.5-2-1.6-2.2c-1.1-0.2-2.1,0.5-2.4,1.5C50,4.7,50.7,5.7,51.8,5.9
		L51.8,5.9z"/>
	<path class="st0" d="M82.9,5.9c1.1,0,2.2-1.2,2-2.2c-0.2-1-1.3-1.7-2.3-1.5c-1.1,0.2-1.8,1.2-1.6,2.2C81.1,5.3,81.9,5.9,82.9,5.9
		L82.9,5.9z"/>
	<path class="st0" d="M67.5,12.6c1.5,0,2.5-1.9,1.6-3.1c-0.7-0.8-1.9-1-2.8-0.3c-0.9,0.6-1,1.8-0.3,2.7
		C66.3,12.3,66.9,12.6,67.5,12.6L67.5,12.6z"/>
	<path class="st0" d="M74.7,8.4c0.6-0.4,0.8-0.4,0.8-0.2c1-0.4,1.5-1.6,1-2.5c-0.5-1-1.6-1.4-2.6-0.9C72,5.6,72.7,8.4,74.7,8.4z"/>
	<path class="st0" d="M35.3,6.8c1.2,0,2.3-1.3,1.9-2.5c-0.3-1-1.5-1.5-2.5-1.2c-1.1,0.3-1.6,1.4-1.3,2.4C33.7,6.3,34.5,6.8,35.3,6.8
		z"/>
	<path class="st0" d="M12.3,45.6c1.1-0.1,1.9-1.1,1.7-2.1c-0.1-1-1.1-1.8-2.2-1.6C10.7,42,9.9,42.9,10,44c0,0,0,0,0,0
		C10.2,45,11.2,45.7,12.3,45.6L12.3,45.6z"/>
	<path class="st0" d="M15.3,21.9c1,0.5,2.1,0.1,2.7-0.8c0.5-0.9,0.1-2.1-0.8-2.6c-1-0.5-2.2-0.1-2.7,0.8
		C14,20.2,14.4,21.4,15.3,21.9z"/>
	<path class="st0" d="M11.6,37.6c1,0.1,2.1-0.8,2.1-1.8c0.1-1-0.8-1.9-1.9-2C9.3,33.7,9,37.3,11.6,37.6z"/>
	<path class="st0" d="M18.7,58.4c-0.5-1-1.6-1.4-2.6-0.9c-1,0.4-1.4,1.6-1,2.5c0.3,0.7,1.1,1.1,1.8,1.1C18.2,61,19.3,59.5,18.7,58.4
		z"/>
	<path class="st0" d="M12.6,29.5c1,0.3,2.2-0.4,2.5-1.3c0.3-1-0.3-2-1.4-2.3c-1.1-0.3-2.2,0.3-2.5,1.3
		C10.9,28.2,11.6,29.3,12.6,29.5z"/>
	<path class="st0" d="M15.8,51.1L15.8,51.1c-0.3-1-1.4-1.6-2.5-1.3c-1.1,0.3-1.7,1.4-1.3,2.4c0.3,0.8,1.1,1.3,1.9,1.3
		C15.1,53.5,16.1,52.2,15.8,51.1z"/>
	<path class="st0" d="M121.3,50.1c-1.1-0.3-2.2,0.2-2.5,1.2c-0.3,1,0.3,2.1,1.3,2.4c1,0.3,2.2-0.3,2.5-1.3
		C123,51.4,122.4,50.4,121.3,50.1z"/>
	<path class="st0" d="M122.9,42.1c-1.1-0.1-2.1,0.6-2.2,1.6c-0.1,1,0.6,2,1.7,2.1c1,0.1,2.1-0.7,2.2-1.6
		C124.8,43.2,124,42.3,122.9,42.1z"/>
	<path class="st0" d="M109.9,71.6c-0.9-0.7-2.1-0.5-2.8,0.3c-0.7,0.8-0.6,2,0.3,2.7c1,0.6,1.9,0.5,2.8-0.3
		C110.9,73.5,110.8,72.3,109.9,71.6z"/>
	<path class="st0" d="M65.4,99.6c0,1,0.9,1.9,2,1.9c2.6-0.1,2.6-3.7,0-3.8C66.2,97.7,65.4,98.6,65.4,99.6z"/>
	<path class="st0" d="M118.5,57.7c-1-0.4-2.2,0-2.7,0.9c-0.5,0.9,0,2.1,1,2.5c0.9,0.4,2.2,0,2.7-0.9C120,59.3,119.5,58.1,118.5,57.7
		z"/>
	<path class="st0" d="M114.7,64.9c-0.9-0.6-2.2-0.3-2.8,0.6h0c-0.6,0.9-0.3,2.1,0.6,2.6c0.9,0.5,2.2,0.2,2.8-0.6
		C115.9,66.6,115.6,65.5,114.7,64.9z"/>
	<path class="st0" d="M50,92.7c-0.6,0.9-0.2,2.1,0.7,2.6c0.9,0.5,2.2,0.2,2.7-0.7c0.6-0.9,0.2-2.1-0.7-2.6
		C51.8,91.5,50.6,91.8,50,92.7L50,92.7z"/>
	<path class="st0" d="M42.9,88.2c-0.6,0.9-0.4,2,0.5,2.6c1,0.6,1.9,0.4,2.8-0.5c0.6-0.9,0.4-2-0.5-2.6
		C44.8,87.1,43.5,87.3,42.9,88.2z"/>
	<path class="st0" d="M57.4,96.7c-0.5,0.9-0.1,2.1,0.9,2.5c0.9,0.4,2.2,0,2.7-0.8c0.5-0.9,0.1-2.1-0.9-2.5
		C59.1,95.3,57.9,95.7,57.4,96.7z"/>
	<path class="st0" d="M36.2,83.1c-0.7,0.8-0.6,2,0.2,2.7c1,0.7,1.9,0.6,2.8-0.2c0.7-0.8,0.6-2-0.2-2.7
		C38.2,82.2,36.9,82.3,36.2,83.1z"/>
	<path class="st0" d="M24.6,71.4c-0.9,0.7-1,1.8-0.3,2.7c0.9,0.8,1.8,0.9,2.8,0.3c0.9-0.7,1-1.8,0.3-2.7
		C26.7,70.9,25.4,70.7,24.6,71.4z"/>
	<path class="st0" d="M20.9,68.2c1.4,0,2.5-1.7,1.7-2.9c-0.6-0.9-1.8-1.2-2.8-0.6c-0.9,0.6-1.2,1.7-0.6,2.6
		C19.6,67.8,20.2,68.2,20.9,68.2z"/>
	<path class="st0" d="M31.5,80.8c0.5,0,1-0.2,1.4-0.5c0.8-0.7,0.8-1.9,0-2.7c-0.8-0.7-2-0.8-2.8,0C28.8,78.7,29.8,80.8,31.5,80.8
		L31.5,80.8z"/>
	<path class="st0" d="M27.6,10.3c1.5,0,2.5-1.7,1.7-2.9c-0.6-0.9-1.8-1.1-2.8-0.6c-0.9,0.6-1.2,1.7-0.6,2.6
		C26.3,10,27,10.3,27.6,10.3z"/>
	<path class="st0" d="M19.8,15c1,0.7,1.9,0.6,2.8-0.1c0.7-0.8,0.7-2-0.1-2.7c-0.8-0.7-2.1-0.6-2.8,0.1C18.9,13.1,19,14.3,19.8,15z"
		/>
	<path class="st1" d="M29.3,18.9c-0.8-0.7-2.1-0.6-2.8,0.2c-14.1,16.2-4.7,40.3,10.5,54.4c7.1,6.8,16,12.8,26.5,17.7
		c2.5,1.2,5.2,1.2,7.8,0c10.5-4.9,19.4-10.8,26.5-17.7c16.4-15.3,27.1-43.7,5-59C96.8,11,89.7,10,82.6,11.7
		c-6.2,1.5-11.6,5-15.2,9.7c-6.9-8.9-19.8-12.9-30.8-9c-2.4,0.9-1,4.4,1.4,3.6c10.2-3.6,22.3,0.8,27.6,9.9c0.7,1.3,2.8,1.3,3.5,0
		c3-5.1,8.3-8.9,14.5-10.4c6-1.5,12.1-0.6,17,2.4c7,4.2,13,14.7,9.7,27.8c-2.3,9.2-7.5,17.7-15.4,25.3c-1.3,1.3-2.7,2.5-4.1,3.7
		c-2.5-2.8-5.5-5.2-8.9-7c3.9-4.3,4.9-9.3,4.6-14.8c-0.3-10.1-8.9-18-19.3-17.7c-4.8,0.1-9.4,1.8-12.9,4.8c-3.8,3.4-6,8-6.1,13.4
		C48,58.6,49,63.4,52.8,67.6c-3.4,1.8-6.4,4.1-8.9,7c-1.4-1.2-2.8-2.4-4.1-3.7C26.1,58.1,16.9,36.4,29.5,21.6
		C30.2,20.8,30.1,19.6,29.3,18.9L29.3,18.9z M67.2,38.8C74.5,38.8,82,43.6,82.5,53C77.3,53.2,72.1,52,69,47.8c-0.8-1.1-2.5-1-3.3,0
		c-2.9,4-8.4,6.1-13.5,5.2C52.7,43.8,60.1,38.9,67.2,38.8L67.2,38.8z M52.6,56.9c5.4,0.6,11-1.3,14.8-5c3.9,3.8,9.7,5.8,15.2,5
		c-0.3,3.2-1.7,6.3-4.1,8.8c-6.1,6.3-16.2,6.3-22.2,0c-2.4-2.5-3.8-5.6-4.1-8.8C52.3,56.8,52.4,56.8,52.6,56.9L52.6,56.9z M47,77
		c2.4-2.8,5.4-5,8.8-6.6c6.8,5,16.3,5,23.1,0c3.4,1.6,6.4,3.8,8.8,6.6c-5.3,4-11.3,7.6-18,10.7c-1.7,0.8-3.1,0.8-4.8,0
		C58.3,84.6,52.3,81,47,77L47,77z"/>
	<path class="st0" d="M104.1,106c-2.6-2.4-6.8-3.1-9.8,0.2c-3.7,3.8-8.6,6.7-14,8.5c0.9-4.8-3.1-9.4-8.1-8.5c-4.8,0.8-11.4,1-15.9-3
		c-4.4-3.9-11.3-3.2-15.1,1.1h-5.4c-2.5-10.1-17.1-8.6-17.4,1.9v17.5c0.3,10.6,15,12,17.4,1.8H42c14.6,6.2,32.8,7.1,47.2,1
		c2.4-1,0.8-4.7-1.6-3.7c-6.6,2.8-14.3,4.1-22.3,3.8c-7.6-0.3-15.3-2-22.2-4.9c-0.2-0.1-0.5-0.2-0.8-0.2H36v-13.3h6.2
		c0.6,0,1.2-0.3,1.6-0.8c2.3-3.1,6.9-4,9.9-1.3c4.5,4,11.2,5.4,19.3,3.9c4.6-0.8,4.7,5.6,0.8,6.1c-5.1,0.7-10.4,0.7-15.6-0.4
		c-1.1-0.2-2.1,0.5-2.4,1.5c-0.2,1.1,0.5,2.1,1.5,2.4c6.8,1.5,14.3,1.3,21.2-0.4c7.5-1.9,13.9-5.5,18.7-10.4c1.9-2,4-0.2,4.2,0
		c0.2,0.2,2.2,2.2,0.3,4.2c-1.5,1.6-3.1,3.1-4.8,4.4c-2.1,1.6,0.4,4.7,2.4,3.2c1.9-1.5,3.7-3.1,5.3-4.8
		C107.7,112.5,106.7,108.4,104.1,106L104.1,106z M32,123.7c0,2.6-2.1,4.8-4.8,4.8s-4.8-2.1-4.8-4.8v-17.5c0.3-6.3,9.3-6.3,9.6,0
		L32,123.7L32,123.7z"/>
</g>
<path class="st1" d="M27.2,101.5c2.6,0,4.8,2.2,4.8,4.8v17.4c0,2.6-2.2,4.8-4.8,4.8s-4.8-2.2-4.8-4.8v-17.4
	C22.4,103.6,24.5,101.5,27.2,101.5 M27.2,97.5c-4.8,0-8.8,3.9-8.8,8.8v17.4c0,4.8,3.9,8.8,8.8,8.8s8.8-3.9,8.8-8.8v-17.4
	C36,101.4,32,97.5,27.2,97.5L27.2,97.5z"/>
</svg>
